<svg xmlns="http://www.w3.org/2000/svg" version="1.1" xmlns:xlink="http://www.w3.org/1999/xlink" viewBox="0 0 23.462348908225895 8.715016045372511"><g transform="matrix(0.7647123453922987,0,0,0.7647123453922987,3.785468365694107,3.610049499586871)"><g transform="matrix(1,0,0,1,0,0)" clip-path="url(#SvgjsClipPath161461)"><g clip-path="url(#SvgjsClipPath161459a5455be6-5ced-4268-b333-830d76069122)"><path d=" M 17.764609239574995 -1.2041113638344196 C 18.266765654913772 -1.2042738203087304 18.753468338697992 -1.0304514332429444 19.14191179171396 -0.7122175952133549 L 19.29341507244927 -0.8961858646776348 L 19.596421633919842 -1.268057553755162 L 19.671189486750237 -1.3595497947186774 L 19.671189486750237 -1.3595497947186774 C 20.372409598654464 -0.7869802679829978 20.778838355348977 0.07067472614389825 20.777950466147626 0.9759618186941292 C 20.77875410044678 2.034246367112017 20.224163002095892 3.015331091264822 19.317025973342428 3.560371679029572 L 19.009100474186283 3.047818372126054 C 19.734982680037675 2.6106936999390893 20.178837712088736 1.8252681428024857 20.178823855967195 0.9779293937686191 C 20.179739045640044 0.5217484757525557 20.050753686968743 0.07473572480180213 19.806952166889648 -0.31083228001861185 L 19.77743854077242 -0.2921403168109662 L 19.60527572175503 -0.18293990017709305 C 19.824697304308238 0.16442425259735804 19.940713405118746 0.5670683671750387 19.939763484417323 0.9779293937686191 C 19.939795441198292 1.8836666417249752 19.37979602579506 2.6950783820857573 18.53294730616144 3.0163371709341815 L 18.583120470560452 3.148164700924757 L 18.68838573704535 3.426576573964283 L 18.68838573704535 3.426576573964283 L 18.829067354870972 3.7994320505790506 L 18.829067354870972 3.7994320505790506 C 18.48749996560651 3.929361642493541 18.125135176111772 3.996034096862397 17.759690301888785 3.9961895580274724 C 16.11495717184948 3.995927478988431 14.773428685124133 2.678464245612707 14.743397712704418 1.0340052833914277 L 15.342524322884884 1.0231836204817628 C 15.366124626635647 2.3413733988482965 16.441289315685474 3.397721611858585 17.759690301888785 3.3980467353842654 L 17.852166330389537 3.3980467353842654 L 17.852166330389537 3.3636141715807906 L 17.844296030091595 3.158986363834426 L 17.760674089426015 3.158986363834426 C 17.182743649039804 3.158986363834426 16.62848373486712 2.929404390304353 16.219825201415944 2.5207458568531624 C 15.81116666796473 2.1120873234019726 15.581584694434653 1.557827409229286 15.581584694434653 0.979896968843109 C 15.581758979840073 0.8626200106029964 15.590968246700026 0.7455307605263948 15.609130745477428 0.6296686055850569 L 15.469432915189088 0.6070414922283414 L 15.174296654016441 0.5588359029034797 L 15.174296654016441 0.5588359029034797 L 14.780781639119573 0.49488971298273743 L 14.780781639119573 0.49488971298273743 C 15.018925144600054 -0.9648087805739907 16.27970962331722 -2.036912926004445 17.758706514351488 -2.0373794078784995 C 18.26991120835761 -2.0379596883115147 18.77278786363084 -1.9079228966449098 19.21963100715607 -1.6596049935775197 L 18.930397471206874 -1.1362300237647105 C 18.571949473399783 -1.3350988407730506 18.168624942835716 -1.4390624267370873 17.758706514351456 -1.4382527976980426 C 16.861764509615 -1.438262952695099 16.03850101675054 -0.9418055289852101 15.61995240838707 -0.14850733637360958 L 15.650449822041612 -0.13178294824049241 L 15.831466728894153 -0.03340419451627952 C 16.208562984459327 -0.7482593630901002 16.95048660541548 -1.1955343995113314 17.758706514351488 -1.1952572759992366 Z M 17.764609239574995 -0.6384335299201973 C 16.873546639191424 -0.6384335299201931 16.151197678497926 0.08391543077332697 16.151197678497926 0.9749780311568927 C 16.151197665220035 1.8660406074987548 16.873546615149706 2.5883895789561135 17.764609215533277 2.5883895922339875 C 18.655671839958565 2.5883895922339786 19.37802080065208 1.8660406315404585 19.37802080065208 0.9749780311568927 C 19.37639291414184 0.08506822713271989 18.654520532519715 -0.6354836562303134 17.764609239574977 -0.635482167308471 Z" fill="#d4d6c9" transform="matrix(1,0,0,1,0,0)" fill-rule="evenodd"></path></g><g clip-path="url(#SvgjsClipPath161459a5455be6-5ced-4268-b333-830d76069122)"><path d=" M 17.76559302711224 -0.3029619797206351 C 17.426401346524415 -0.3029619797206393 17.10110207409801 -0.16821860925152143 16.861257336632303 0.07162612821418612 C 16.621412599166582 0.3114708656798979 16.486669228697462 0.6367701381063093 16.486669228697462 0.9759618186941292 C 16.48666922154953 1.315153472330656 16.62141258516352 1.6404527475965738 16.861257317574857 1.8802974901166314 C 17.101102049986217 2.120142232636689 17.426401319573134 2.25488560996098 17.76559300016096 2.254885617108907 C 18.104784707700063 2.2548856171089104 18.43008398012647 2.120142246639789 18.66992871759219 1.8802975091740812 C 18.909773455057895 1.6404527717083734 19.044516825527015 1.3151534992819576 19.044516825527015 0.9759618186941377 C 19.044516832674947 0.636770165057611 18.909773469060976 0.31147088979169313 18.66992873664962 0.07162614727163596 C 18.43008400423826 -0.16821859524842586 18.104784734651343 -0.30296197257271285 17.76559305406352 -0.3029619797206393 Z M 17.955464021799983 0.9582536430237756 L 17.955464021799983 1.4196499979903368 C 17.95492266518595 1.5246717876570526 17.869632424490757 1.6095223879363076 17.764609239575044 1.6095209926780654 C 17.65997004241647 1.6089829912991775 17.575276246266178 1.5242891951488855 17.574738244887282 1.4196499979903368 L 17.574738244887282 0.9602212180982614 C 17.48324046656793 0.8990495537933421 17.42769159520764 0.7967807707591952 17.426186326763705 0.6867282827449515 C 17.42672666166197 0.4995034089370929 17.578368153304385 0.34786191729466864 17.76559302711224 0.3473215823964182 C 17.952817900920092 0.3478619172946731 18.104459392562525 0.4995034089370969 18.104999727460772 0.6867282827449515 C 18.103273800147075 0.7969656831541396 18.04733628184622 0.8992724600464492 17.955464021799965 0.9602212180982614 Z" fill="#aac527" transform="matrix(1,0,0,1,0,0)" fill-rule="evenodd"></path></g></g><g><path d=" M 1.1378334960937524 1.0799999999999996 Q 0.9938334960937525 1.0799999999999996 0.8970834960937525 1.0379999999999998 Q 0.8003334960937525 0.9959999999999998 0.7508334960937525 0.9284999999999997 Q 0.7013334960937525 0.8609999999999998 0.6983334960937525 0.7844999999999998 Q 0.6983334960937525 0.7724999999999997 0.7073334960937525 0.7627499999999997 Q 0.7163334960937525 0.7529999999999997 0.7298334960937525 0.7529999999999997 L 0.8903334960937526 0.7529999999999997 Q 0.9098334960937525 0.7529999999999997 0.9203334960937526 0.7612499999999998 Q 0.9308334960937525 0.7694999999999997 0.9398334960937524 0.7814999999999996 Q 0.9503334960937525 0.8069999999999997 0.9735834960937525 0.8309999999999997 Q 0.9968334960937526 0.8549999999999998 1.0373334960937526 0.8707499999999997 Q 1.0778334960937526 0.8864999999999997 1.1378334960937524 0.8864999999999997 Q 1.2353334960937525 0.8864999999999997 1.2840834960937526 0.8549999999999998 Q 1.3328334960937527 0.8234999999999997 1.3328334960937527 0.7694999999999997 Q 1.3328334960937527 0.7304999999999997 1.3065834960937526 0.7064999999999997 Q 1.2803334960937525 0.6824999999999997 1.2240834960937526 0.6629999999999997 Q 1.1678334960937526 0.6434999999999997 1.0748334960937524 0.6209999999999998 Q 0.9623334960937525 0.5969999999999998 0.8835834960937525 0.5587499999999997 Q 0.8048334960937525 0.5204999999999997 0.7650834960937525 0.45974999999999966 Q 0.7253334960937525 0.3989999999999997 0.7253334960937525 0.3089999999999997 Q 0.7253334960937525 0.21899999999999975 0.7748334960937525 0.14924999999999966 Q 0.8243334960937525 0.07949999999999968 0.9143334960937526 0.03974999999999973 Q 1.0043334960937524 -2.220446049250313e-16 1.1288334960937525 -2.220446049250313e-16 Q 1.2293334960937525 -2.220446049250313e-16 1.3065834960937526 0.02699999999999969 Q 1.3838334960937524 0.053999999999999604 1.4355834960937526 0.0974999999999997 Q 1.4873334960937525 0.14099999999999968 1.5143334960937525 0.19049999999999967 Q 1.5413334960937526 0.23999999999999966 1.5428334960937526 0.28649999999999975 Q 1.5428334960937526 0.29849999999999965 1.5338334960937525 0.3082499999999997 Q 1.5248334960937524 0.3179999999999997 1.5113334960937526 0.3179999999999997 L 1.3433334960937526 0.3179999999999997 Q 1.3283334960937525 0.3179999999999997 1.3163334960937525 0.3119999999999997 Q 1.3043334960937525 0.3059999999999997 1.2968334960937526 0.2909999999999997 Q 1.2878334960937525 0.25199999999999967 1.2435834960937524 0.22274999999999967 Q 1.1993334960937525 0.19349999999999967 1.1288334960937525 0.19349999999999967 Q 1.0553334960937526 0.19349999999999967 1.0125834960937525 0.2204999999999997 Q 0.9698334960937525 0.24749999999999972 0.9698334960937525 0.3029999999999997 Q 0.9698334960937525 0.33899999999999975 0.9915834960937525 0.3637499999999997 Q 1.0133334960937526 0.38849999999999973 1.0650834960937525 0.40724999999999967 Q 1.1168334960937525 0.4259999999999997 1.2023334960937526 0.4484999999999997 Q 1.3343334960937525 0.4754999999999997 1.4168334960937525 0.5129999999999997 Q 1.4993334960937525 0.5504999999999998 1.5383334960937525 0.6097499999999998 Q 1.5773334960937526 0.6689999999999997 1.5773334960937526 0.7589999999999997 Q 1.5773334960937526 0.8594999999999997 1.5210834960937525 0.9314999999999998 Q 1.4648334960937526 1.0034999999999998 1.3665834960937526 1.0417499999999997 Q 1.2683334960937525 1.0799999999999996 1.1378334960937524 1.0799999999999996 M 1.7737998046875025 1.0649999999999997 Q 1.7572998046875026 1.0649999999999997 1.7467998046875024 1.0544999999999998 Q 1.7362998046875024 1.0439999999999998 1.7362998046875024 1.0274999999999996 L 1.7362998046875024 0.05249999999999977 Q 1.7362998046875024 0.03599999999999981 1.7467998046875024 0.025499999999999634 Q 1.7572998046875026 0.01499999999999968 1.7737998046875025 0.01499999999999968 L 1.9402998046875024 0.01499999999999968 Q 1.9567998046875026 0.01499999999999968 1.9672998046875025 0.025499999999999634 Q 1.9777998046875025 0.03599999999999981 1.9777998046875025 0.05249999999999977 L 1.9777998046875025 0.8639999999999997 L 2.4427998046875024 0.8639999999999997 Q 2.4592998046875025 0.8639999999999997 2.4697998046875025 0.8744999999999997 Q 2.4802998046875024 0.8849999999999998 2.4802998046875024 0.9014999999999997 L 2.4802998046875024 1.0274999999999996 Q 2.4802998046875024 1.0439999999999998 2.4697998046875025 1.0544999999999998 Q 2.4592998046875025 1.0649999999999997 2.4427998046875024 1.0649999999999997 L 1.7737998046875025 1.0649999999999997 M 2.6543188476562523 1.0649999999999997 Q 2.6378188476562525 1.0649999999999997 2.6273188476562526 1.0544999999999998 Q 2.6168188476562526 1.0439999999999998 2.6168188476562526 1.0274999999999996 L 2.6168188476562526 0.05249999999999977 Q 2.6168188476562526 0.03599999999999981 2.6273188476562526 0.025499999999999634 Q 2.6378188476562525 0.01499999999999968 2.6543188476562523 0.01499999999999968 L 3.3338188476562527 0.01499999999999968 Q 3.3503188476562524 0.01499999999999968 3.3608188476562524 0.025499999999999634 Q 3.3713188476562523 0.03599999999999981 3.3713188476562523 0.05249999999999977 L 3.3713188476562523 0.17249999999999965 Q 3.3713188476562523 0.18749999999999967 3.3608188476562524 0.19799999999999973 Q 3.3503188476562524 0.20849999999999969 3.3338188476562527 0.20849999999999969 L 2.8478188476562525 0.20849999999999969 L 2.8478188476562525 0.44399999999999973 L 3.3008188476562523 0.44399999999999973 Q 3.3173188476562525 0.44399999999999973 3.3278188476562525 0.4544999999999997 Q 3.3383188476562524 0.46499999999999975 3.3383188476562524 0.4814999999999997 L 3.3383188476562524 0.5924999999999997 Q 3.3383188476562524 0.6074999999999997 3.3278188476562525 0.6179999999999997 Q 3.3173188476562525 0.6284999999999997 3.3008188476562523 0.6284999999999997 L 2.8478188476562525 0.6284999999999997 L 2.8478188476562525 0.8714999999999997 L 3.3458188476562523 0.8714999999999997 Q 3.3623188476562524 0.8714999999999997 3.3728188476562524 0.8819999999999997 Q 3.3833188476562523 0.8924999999999997 3.3833188476562523 0.9089999999999997 L 3.3833188476562523 1.0274999999999996 Q 3.3833188476562523 1.0439999999999998 3.3728188476562524 1.0544999999999998 Q 3.3623188476562524 1.0649999999999997 3.3458188476562523 1.0649999999999997 L 2.6543188476562523 1.0649999999999997 M 3.9893261718750024 1.0799999999999996 Q 3.8573261718750023 1.0799999999999996 3.7583261718750025 1.0357499999999997 Q 3.6593261718750023 0.9914999999999997 3.6053261718750025 0.8992499999999997 Q 3.551326171875002 0.8069999999999997 3.551326171875002 0.6644999999999996 L 3.551326171875002 0.05249999999999977 Q 3.551326171875002 0.03599999999999981 3.561826171875002 0.025499999999999634 Q 3.5723261718750026 0.01499999999999968 3.5888261718750023 0.01499999999999968 L 3.7523261718750023 0.01499999999999968 Q 3.7688261718750025 0.01499999999999968 3.7793261718750024 0.025499999999999634 Q 3.7898261718750024 0.03599999999999981 3.7898261718750024 0.05249999999999977 L 3.7898261718750024 0.6629999999999997 Q 3.7898261718750024 0.7739999999999998 3.842326171875002 0.8279999999999997 Q 3.8948261718750024 0.8819999999999997 3.9893261718750024 0.8819999999999997 Q 4.082326171875002 0.8819999999999997 4.134826171875003 0.8279999999999997 Q 4.187326171875002 0.7739999999999998 4.187326171875002 0.6629999999999997 L 4.187326171875002 0.05249999999999977 Q 4.187326171875002 0.03599999999999981 4.198576171875002 0.025499999999999634 Q 4.209826171875003 0.01499999999999968 4.224826171875002 0.01499999999999968 L 4.3898261718750025 0.01499999999999968 Q 4.404826171875002 0.01499999999999968 4.4153261718750025 0.025499999999999634 Q 4.425826171875002 0.03599999999999981 4.425826171875002 0.05249999999999977 L 4.425826171875002 0.6644999999999996 Q 4.425826171875002 0.8069999999999997 4.371826171875003 0.8992499999999997 Q 4.317826171875002 0.9914999999999997 4.220326171875002 1.0357499999999997 Q 4.122826171875002 1.0799999999999996 3.9893261718750024 1.0799999999999996 M 4.9058173828125025 1.0649999999999997 Q 4.889317382812502 1.0649999999999997 4.878817382812502 1.0544999999999998 Q 4.868317382812502 1.0439999999999998 4.868317382812502 1.0274999999999996 L 4.868317382812502 0.2234999999999997 L 4.595317382812502 0.2234999999999997 Q 4.580317382812503 0.2234999999999997 4.569817382812502 0.21299999999999975 Q 4.559317382812503 0.20249999999999968 4.559317382812503 0.18749999999999967 L 4.559317382812503 0.05249999999999977 Q 4.559317382812503 0.03599999999999981 4.569817382812502 0.025499999999999634 Q 4.580317382812503 0.01499999999999968 4.595317382812502 0.01499999999999968 L 5.381317382812503 0.01499999999999968 Q 5.3978173828125025 0.01499999999999968 5.408317382812502 0.025499999999999634 Q 5.418817382812502 0.03599999999999981 5.418817382812502 0.05249999999999977 L 5.418817382812502 0.18749999999999967 Q 5.418817382812502 0.20249999999999968 5.408317382812502 0.21299999999999975 Q 5.3978173828125025 0.2234999999999997 5.381317382812503 0.2234999999999997 L 5.109817382812502 0.2234999999999997 L 5.109817382812502 1.0274999999999996 Q 5.109817382812502 1.0439999999999998 5.099317382812503 1.0544999999999998 Q 5.088817382812502 1.0649999999999997 5.0723173828125026 1.0649999999999997 L 4.9058173828125025 1.0649999999999997 M 5.5988239746093775 1.0649999999999997 Q 5.582323974609377 1.0649999999999997 5.571823974609377 1.0544999999999998 Q 5.561323974609377 1.0439999999999998 5.561323974609377 1.0274999999999996 L 5.561323974609377 0.05249999999999977 Q 5.561323974609377 0.03599999999999981 5.571823974609377 0.025499999999999634 Q 5.582323974609377 0.01499999999999968 5.5988239746093775 0.01499999999999968 L 6.2783239746093775 0.01499999999999968 Q 6.294823974609377 0.01499999999999968 6.305323974609378 0.025499999999999634 Q 6.315823974609377 0.03599999999999981 6.315823974609377 0.05249999999999977 L 6.315823974609377 0.17249999999999965 Q 6.315823974609377 0.18749999999999967 6.305323974609378 0.19799999999999973 Q 6.294823974609377 0.20849999999999969 6.2783239746093775 0.20849999999999969 L 5.792323974609377 0.20849999999999969 L 5.792323974609377 0.44399999999999973 L 6.245323974609377 0.44399999999999973 Q 6.261823974609377 0.44399999999999973 6.272323974609377 0.4544999999999997 Q 6.282823974609377 0.46499999999999975 6.282823974609377 0.4814999999999997 L 6.282823974609377 0.5924999999999997 Q 6.282823974609377 0.6074999999999997 6.272323974609377 0.6179999999999997 Q 6.261823974609377 0.6284999999999997 6.245323974609377 0.6284999999999997 L 5.792323974609377 0.6284999999999997 L 5.792323974609377 0.8714999999999997 L 6.290323974609377 0.8714999999999997 Q 6.306823974609378 0.8714999999999997 6.317323974609377 0.8819999999999997 Q 6.327823974609378 0.8924999999999997 6.327823974609378 0.9089999999999997 L 6.327823974609378 1.0274999999999996 Q 6.327823974609378 1.0439999999999998 6.317323974609377 1.0544999999999998 Q 6.306823974609378 1.0649999999999997 6.290323974609377 1.0649999999999997 L 5.5988239746093775 1.0649999999999997 M 6.5423312988281275 1.0649999999999997 Q 6.525831298828127 1.0649999999999997 6.515331298828127 1.0544999999999998 Q 6.504831298828127 1.0439999999999998 6.504831298828127 1.0274999999999996 L 6.504831298828127 0.05249999999999977 Q 6.504831298828127 0.03599999999999981 6.515331298828127 0.025499999999999634 Q 6.525831298828127 0.01499999999999968 6.5423312988281275 0.01499999999999968 L 6.708831298828128 0.01499999999999968 Q 6.725331298828127 0.01499999999999968 6.735831298828127 0.025499999999999634 Q 6.746331298828127 0.03599999999999981 6.746331298828127 0.05249999999999977 L 6.746331298828127 0.8639999999999997 L 7.211331298828127 0.8639999999999997 Q 7.227831298828127 0.8639999999999997 7.238331298828127 0.8744999999999997 Q 7.248831298828128 0.8849999999999998 7.248831298828128 0.9014999999999997 L 7.248831298828128 1.0274999999999996 Q 7.248831298828128 1.0439999999999998 7.238331298828127 1.0544999999999998 Q 7.227831298828127 1.0649999999999997 7.211331298828127 1.0649999999999997 L 6.5423312988281275 1.0649999999999997 M 7.763350341796877 1.0799999999999996 Q 7.619350341796877 1.0799999999999996 7.522600341796877 1.0379999999999998 Q 7.4258503417968775 0.9959999999999998 7.376350341796877 0.9284999999999997 Q 7.326850341796877 0.8609999999999998 7.323850341796877 0.7844999999999998 Q 7.323850341796877 0.7724999999999997 7.332850341796878 0.7627499999999997 Q 7.341850341796877 0.7529999999999997 7.3553503417968775 0.7529999999999997 L 7.515850341796877 0.7529999999999997 Q 7.535350341796877 0.7529999999999997 7.545850341796877 0.7612499999999998 Q 7.556350341796877 0.7694999999999997 7.5653503417968775 0.7814999999999996 Q 7.575850341796877 0.8069999999999997 7.599100341796877 0.8309999999999997 Q 7.622350341796877 0.8549999999999998 7.662850341796877 0.8707499999999997 Q 7.703350341796877 0.8864999999999997 7.763350341796877 0.8864999999999997 Q 7.860850341796877 0.8864999999999997 7.909600341796877 0.8549999999999998 Q 7.958350341796877 0.8234999999999997 7.958350341796877 0.7694999999999997 Q 7.958350341796877 0.7304999999999997 7.932100341796877 0.7064999999999997 Q 7.905850341796877 0.6824999999999997 7.849600341796878 0.6629999999999997 Q 7.793350341796877 0.6434999999999997 7.700350341796877 0.6209999999999998 Q 7.5878503417968775 0.5969999999999998 7.509100341796877 0.5587499999999997 Q 7.430350341796877 0.5204999999999997 7.390600341796877 0.45974999999999966 Q 7.350850341796877 0.3989999999999997 7.350850341796877 0.3089999999999997 Q 7.350850341796877 0.21899999999999975 7.4003503417968775 0.14924999999999966 Q 7.4498503417968776 0.07949999999999968 7.539850341796877 0.03974999999999973 Q 7.629850341796877 -2.220446049250313e-16 7.7543503417968775 -2.220446049250313e-16 Q 7.854850341796877 -2.220446049250313e-16 7.932100341796877 0.02699999999999969 Q 8.009350341796877 0.053999999999999604 8.061100341796877 0.0974999999999997 Q 8.112850341796877 0.14099999999999968 8.139850341796878 0.19049999999999967 Q 8.166850341796877 0.23999999999999966 8.168350341796877 0.28649999999999975 Q 8.168350341796877 0.29849999999999965 8.159350341796877 0.3082499999999997 Q 8.150350341796877 0.3179999999999997 8.136850341796878 0.3179999999999997 L 7.968850341796877 0.3179999999999997 Q 7.953850341796877 0.3179999999999997 7.9418503417968775 0.3119999999999997 Q 7.929850341796877 0.3059999999999997 7.922350341796877 0.2909999999999997 Q 7.913350341796877 0.25199999999999967 7.8691003417968775 0.22274999999999967 Q 7.824850341796877 0.19349999999999967 7.7543503417968775 0.19349999999999967 Q 7.680850341796877 0.19349999999999967 7.638100341796877 0.2204999999999997 Q 7.595350341796877 0.24749999999999972 7.595350341796877 0.3029999999999997 Q 7.595350341796877 0.33899999999999975 7.617100341796877 0.3637499999999997 Q 7.638850341796877 0.38849999999999973 7.690600341796877 0.40724999999999967 Q 7.742350341796877 0.4259999999999997 7.827850341796877 0.4484999999999997 Q 7.959850341796877 0.4754999999999997 8.042350341796878 0.5129999999999997 Q 8.124850341796877 0.5504999999999998 8.163850341796877 0.6097499999999998 Q 8.202850341796877 0.6689999999999997 8.202850341796877 0.7589999999999997 Q 8.202850341796877 0.8594999999999997 8.146600341796876 0.9314999999999998 Q 8.090350341796878 1.0034999999999998 7.992100341796877 1.0417499999999997 Q 7.8938503417968775 1.0799999999999996 7.763350341796877 1.0799999999999996 M 8.399316650390627 1.0649999999999997 Q 8.382816650390627 1.0649999999999997 8.372316650390626 1.0544999999999998 Q 8.361816650390628 1.0439999999999998 8.361816650390628 1.0274999999999996 L 8.361816650390628 0.05249999999999977 Q 8.361816650390628 0.03599999999999981 8.372316650390626 0.025499999999999634 Q 8.382816650390627 0.01499999999999968 8.399316650390627 0.01499999999999968 L 8.808816650390627 0.01499999999999968 Q 8.930316650390626 0.01499999999999968 9.019566650390628 0.05249999999999977 Q 9.108816650390628 0.08999999999999975 9.159066650390628 0.16574999999999973 Q 9.209316650390628 0.24149999999999971 9.209316650390628 0.35399999999999976 Q 9.209316650390628 0.46799999999999975 9.159066650390628 0.5422499999999997 Q 9.108816650390628 0.6164999999999997 9.019566650390628 0.6524999999999996 Q 8.930316650390626 0.6884999999999997 8.808816650390627 0.6884999999999997 L 8.607816650390626 0.6884999999999997 L 8.607816650390626 1.0274999999999996 Q 8.607816650390626 1.0439999999999998 8.597316650390628 1.0544999999999998 Q 8.586816650390627 1.0649999999999997 8.570316650390627 1.0649999999999997 L 8.399316650390627 1.0649999999999997 M 8.603316650390626 0.5024999999999997 L 8.801316650390627 0.5024999999999997 Q 8.877816650390628 0.5024999999999997 8.920566650390628 0.46499999999999975 Q 8.963316650390627 0.42749999999999966 8.963316650390627 0.3524999999999997 Q 8.963316650390627 0.28649999999999975 8.925066650390628 0.24449999999999972 Q 8.886816650390626 0.20249999999999968 8.801316650390627 0.20249999999999968 L 8.603316650390626 0.20249999999999968 L 8.603316650390626 0.5024999999999997 M 9.777804931640627 1.0799999999999996 Q 9.641304931640628 1.0799999999999996 9.542304931640627 1.0349999999999997 Q 9.443304931640627 0.9899999999999998 9.387804931640627 0.8992499999999997 Q 9.332304931640627 0.8084999999999998 9.327804931640626 0.6704999999999997 Q 9.326304931640626 0.6059999999999997 9.326304931640626 0.5422499999999997 Q 9.326304931640626 0.4784999999999997 9.327804931640626 0.41249999999999976 Q 9.332304931640627 0.27749999999999975 9.388554931640627 0.1852499999999997 Q 9.444804931640627 0.09299999999999975 9.544554931640628 0.046499999999999764 Q 9.644304931640628 -2.220446049250313e-16 9.777804931640627 -2.220446049250313e-16 Q 9.909804931640627 -2.220446049250313e-16 10.009554931640627 0.046499999999999764 Q 10.109304931640628 0.09299999999999975 10.166304931640626 0.1852499999999997 Q 10.223304931640627 0.27749999999999975 10.226304931640627 0.41249999999999976 Q 10.229304931640627 0.4784999999999997 10.229304931640627 0.5422499999999997 Q 10.229304931640627 0.6059999999999997 10.226304931640627 0.6704999999999997 Q 10.221804931640627 0.8084999999999998 10.166304931640626 0.8992499999999997 Q 10.110804931640628 0.9899999999999998 10.011804931640627 1.0349999999999997 Q 9.912804931640627 1.0799999999999996 9.777804931640627 1.0799999999999996 M 9.777804931640627 0.8864999999999997 Q 9.864804931640627 0.8864999999999997 9.921054931640628 0.8332499999999997 Q 9.977304931640628 0.7799999999999997 9.980304931640626 0.6629999999999997 Q 9.983304931640626 0.5969999999999998 9.983304931640626 0.5392499999999997 Q 9.983304931640626 0.4814999999999997 9.980304931640626 0.4169999999999997 Q 9.978804931640626 0.33899999999999975 9.951804931640627 0.28949999999999976 Q 9.924804931640628 0.23999999999999966 9.880554931640628 0.21674999999999967 Q 9.836304931640626 0.19349999999999967 9.777804931640627 0.19349999999999967 Q 9.719304931640627 0.19349999999999967 9.674304931640627 0.21674999999999967 Q 9.629304931640627 0.23999999999999966 9.603054931640626 0.28949999999999976 Q 9.576804931640627 0.33899999999999975 9.573804931640627 0.4169999999999997 Q 9.572304931640627 0.4814999999999997 9.572304931640627 0.5392499999999997 Q 9.572304931640627 0.5969999999999998 9.573804931640627 0.6629999999999997 Q 9.578304931640627 0.7799999999999997 9.633804931640627 0.8332499999999997 Q 9.689304931640628 0.8864999999999997 9.777804931640627 0.8864999999999997 M 10.451309326171877 1.0649999999999997 Q 10.434809326171877 1.0649999999999997 10.424309326171876 1.0544999999999998 Q 10.413809326171878 1.0439999999999998 10.413809326171878 1.0274999999999996 L 10.413809326171878 0.05249999999999977 Q 10.413809326171878 0.03599999999999981 10.424309326171876 0.025499999999999634 Q 10.434809326171877 0.01499999999999968 10.451309326171877 0.01499999999999968 L 11.130809326171876 0.01499999999999968 Q 11.147309326171877 0.01499999999999968 11.157809326171877 0.025499999999999634 Q 11.168309326171878 0.03599999999999981 11.168309326171878 0.05249999999999977 L 11.168309326171878 0.17249999999999965 Q 11.168309326171878 0.18749999999999967 11.157809326171877 0.19799999999999973 Q 11.147309326171877 0.20849999999999969 11.130809326171876 0.20849999999999969 L 10.644809326171877 0.20849999999999969 L 10.644809326171877 0.44399999999999973 L 11.097809326171877 0.44399999999999973 Q 11.114309326171878 0.44399999999999973 11.124809326171878 0.4544999999999997 Q 11.135309326171877 0.46499999999999975 11.135309326171877 0.4814999999999997 L 11.135309326171877 0.5924999999999997 Q 11.135309326171877 0.6074999999999997 11.124809326171878 0.6179999999999997 Q 11.114309326171878 0.6284999999999997 11.097809326171877 0.6284999999999997 L 10.644809326171877 0.6284999999999997 L 10.644809326171877 0.8714999999999997 L 11.142809326171877 0.8714999999999997 Q 11.159309326171877 0.8714999999999997 11.169809326171876 0.8819999999999997 Q 11.180309326171876 0.8924999999999997 11.180309326171876 0.9089999999999997 L 11.180309326171876 1.0274999999999996 Q 11.180309326171876 1.0439999999999998 11.169809326171876 1.0544999999999998 Q 11.159309326171877 1.0649999999999997 11.142809326171877 1.0649999999999997 L 10.451309326171877 1.0649999999999997 M 11.394816650390627 1.0649999999999997 Q 11.378316650390627 1.0649999999999997 11.367816650390626 1.0544999999999998 Q 11.357316650390628 1.0439999999999998 11.357316650390628 1.0274999999999996 L 11.357316650390628 0.05249999999999977 Q 11.357316650390628 0.03599999999999981 11.367816650390626 0.025499999999999634 Q 11.378316650390627 0.01499999999999968 11.394816650390627 0.01499999999999968 L 11.771316650390627 0.01499999999999968 Q 11.921316650390628 0.01499999999999968 12.021816650390626 0.062249999999999694 Q 12.122316650390626 0.10949999999999971 12.175566650390627 0.2002499999999997 Q 12.228816650390627 0.2909999999999997 12.231816650390627 0.42449999999999977 Q 12.233316650390627 0.4904999999999997 12.233316650390627 0.5399999999999997 Q 12.233316650390627 0.5894999999999997 12.231816650390627 0.6539999999999997 Q 12.227316650390627 0.7934999999999997 12.176316650390627 0.8849999999999998 Q 12.125316650390626 0.9764999999999997 12.026316650390626 1.0207499999999998 Q 11.927316650390626 1.0649999999999997 11.778816650390628 1.0649999999999997 L 11.394816650390627 1.0649999999999997 M 11.595816650390628 0.8714999999999997 L 11.771316650390627 0.8714999999999997 Q 11.846316650390627 0.8714999999999997 11.894316650390627 0.8489999999999998 Q 11.942316650390627 0.8264999999999997 11.965566650390628 0.7777499999999997 Q 11.988816650390627 0.7289999999999996 11.990316650390627 0.6509999999999997 Q 11.991816650390627 0.6074999999999997 11.992566650390627 0.5729999999999997 Q 11.993316650390627 0.5384999999999998 11.992566650390627 0.5039999999999997 Q 11.991816650390627 0.4694999999999997 11.990316650390627 0.42749999999999966 Q 11.987316650390627 0.3149999999999997 11.932566650390626 0.2617499999999997 Q 11.877816650390628 0.20849999999999969 11.763816650390627 0.20849999999999969 L 11.595816650390628 0.20849999999999969 L 11.595816650390628 0.8714999999999997 M 12.770293212890627 1.0799999999999996 Q 12.686293212890627 1.0799999999999996 12.611293212890628 1.0589999999999997 Q 12.536293212890627 1.0379999999999998 12.477793212890626 0.9952499999999997 Q 12.419293212890627 0.9524999999999997 12.385543212890626 0.8894999999999997 Q 12.351793212890627 0.8264999999999997 12.348793212890627 0.7424999999999997 Q 12.348793212890627 0.7289999999999996 12.357793212890627 0.7192499999999997 Q 12.366793212890627 0.7094999999999998 12.381793212890626 0.7094999999999998 L 12.552793212890627 0.7094999999999998 Q 12.572293212890626 0.7094999999999998 12.583543212890627 0.7199999999999998 Q 12.594793212890627 0.7304999999999997 12.600793212890627 0.7499999999999998 Q 12.608293212890628 0.7979999999999997 12.632293212890627 0.8279999999999997 Q 12.656293212890628 0.8579999999999997 12.693043212890627 0.8722499999999997 Q 12.729793212890627 0.8864999999999997 12.776293212890627 0.8864999999999997 Q 12.861793212890626 0.8864999999999997 12.907543212890626 0.8309999999999997 Q 12.953293212890626 0.7754999999999997 12.953293212890626 0.6734999999999998 L 12.953293212890626 0.2144999999999997 L 12.453793212890627 0.2144999999999997 Q 12.438793212890626 0.2144999999999997 12.428293212890626 0.20399999999999974 Q 12.417793212890627 0.19349999999999967 12.417793212890627 0.17849999999999966 L 12.417793212890627 0.05249999999999977 Q 12.417793212890627 0.03599999999999981 12.428293212890626 0.025499999999999634 Q 12.438793212890626 0.01499999999999968 12.453793212890627 0.01499999999999968 L 13.160293212890627 0.01499999999999968 Q 13.176793212890626 0.01499999999999968 13.187293212890626 0.025499999999999634 Q 13.197793212890627 0.03599999999999981 13.197793212890627 0.05249999999999977 L 13.197793212890627 0.6794999999999998 Q 13.197793212890627 0.8084999999999998 13.143793212890627 0.8977499999999997 Q 13.089793212890626 0.9869999999999998 12.993793212890626 1.0334999999999996 Q 12.897793212890626 1.0799999999999996 12.770293212890627 1.0799999999999996 M 13.446809326171877 1.0649999999999997 Q 13.430309326171876 1.0649999999999997 13.419809326171876 1.0544999999999998 Q 13.409309326171877 1.0439999999999998 13.409309326171877 1.0274999999999996 L 13.409309326171877 0.05249999999999977 Q 13.409309326171877 0.03599999999999981 13.419809326171876 0.025499999999999634 Q 13.430309326171876 0.01499999999999968 13.446809326171877 0.01499999999999968 L 14.126309326171876 0.01499999999999968 Q 14.142809326171877 0.01499999999999968 14.153309326171877 0.025499999999999634 Q 14.163809326171878 0.03599999999999981 14.163809326171878 0.05249999999999977 L 14.163809326171878 0.17249999999999965 Q 14.163809326171878 0.18749999999999967 14.153309326171877 0.19799999999999973 Q 14.142809326171877 0.20849999999999969 14.126309326171876 0.20849999999999969 L 13.640309326171877 0.20849999999999969 L 13.640309326171877 0.44399999999999973 L 14.093309326171877 0.44399999999999973 Q 14.109809326171877 0.44399999999999973 14.120309326171878 0.4544999999999997 Q 14.130809326171876 0.46499999999999975 14.130809326171876 0.4814999999999997 L 14.130809326171876 0.5924999999999997 Q 14.130809326171876 0.6074999999999997 14.120309326171878 0.6179999999999997 Q 14.109809326171877 0.6284999999999997 14.093309326171877 0.6284999999999997 L 13.640309326171877 0.6284999999999997 L 13.640309326171877 0.8714999999999997 L 14.138309326171877 0.8714999999999997 Q 14.154809326171877 0.8714999999999997 14.165309326171876 0.8819999999999997 Q 14.175809326171876 0.8924999999999997 14.175809326171876 0.9089999999999997 L 14.175809326171876 1.0274999999999996 Q 14.175809326171876 1.0439999999999998 14.165309326171876 1.0544999999999998 Q 14.154809326171877 1.0649999999999997 14.138309326171877 1.0649999999999997 L 13.446809326171877 1.0649999999999997" fill="#f9f9f9" fill-rule="nonzero"></path></g><g><path d=" M 0.234 1.9623749999999998 Q 0.16875 1.9623749999999998 0.1245 1.9421249999999997 Q 0.08025 1.9218749999999998 0.056625 1.8899999999999997 Q 0.033 1.8581249999999998 0.0315 1.8228749999999998 Q 0.0315 1.8168749999999996 0.036375 1.8119999999999996 Q 0.04125 1.8071249999999996 0.048 1.8071249999999996 L 0.08625000000000001 1.8071249999999996 Q 0.09525 1.8071249999999996 0.09975 1.8116249999999996 Q 0.10425 1.8161249999999998 0.10575 1.8221249999999998 Q 0.11025 1.8401249999999998 0.1245 1.8577499999999998 Q 0.13875 1.8753749999999998 0.165375 1.8869999999999998 Q 0.192 1.8986249999999998 0.234 1.8986249999999998 Q 0.2985 1.8986249999999998 0.32887500000000003 1.8757499999999996 Q 0.35925 1.8528749999999996 0.35925 1.8146249999999997 Q 0.35925 1.7883749999999996 0.343125 1.7722499999999997 Q 0.327 1.7561249999999997 0.294 1.7433749999999997 Q 0.261 1.7306249999999996 0.2085 1.7156249999999997 Q 0.15375 1.6998749999999996 0.11775000000000001 1.6811249999999998 Q 0.08175 1.6623749999999997 0.064125 1.6346249999999998 Q 0.0465 1.6068749999999996 0.0465 1.5641249999999998 Q 0.0465 1.5236249999999996 0.06825 1.4917499999999997 Q 0.09 1.4598749999999998 0.13125 1.4411249999999995 Q 0.17250000000000001 1.4223749999999997 0.23025 1.4223749999999997 Q 0.27675 1.4223749999999997 0.311625 1.4347499999999997 Q 0.34650000000000003 1.4471249999999998 0.36975 1.4677499999999997 Q 0.393 1.4883749999999996 0.405 1.5119999999999996 Q 0.417 1.5356249999999996 0.41775 1.5581249999999998 Q 0.41775 1.5633749999999997 0.41400000000000003 1.5682499999999997 Q 0.41025 1.5731249999999997 0.402 1.5731249999999997 L 0.36225 1.5731249999999997 Q 0.357 1.5731249999999997 0.351375 1.5701249999999998 Q 0.34575 1.5671249999999997 0.34275 1.5588749999999996 Q 0.33825 1.5281249999999997 0.30825 1.5071249999999996 Q 0.27825 1.4861249999999997 0.23025 1.4861249999999997 Q 0.1815 1.4861249999999997 0.151125 1.5048749999999997 Q 0.12075 1.5236249999999996 0.12075 1.5633749999999997 Q 0.12075 1.5888749999999998 0.135 1.6057499999999996 Q 0.14925 1.6226249999999998 0.18 1.6353749999999998 Q 0.21075 1.6481249999999996 0.26025 1.6623749999999997 Q 0.32025 1.6788749999999997 0.3585 1.6972499999999997 Q 0.39675 1.7156249999999997 0.415125 1.7429999999999997 Q 0.4335 1.7703749999999996 0.4335 1.8131249999999997 Q 0.4335 1.8603749999999997 0.40875 1.8937499999999996 Q 0.384 1.9271249999999998 0.339375 1.9447499999999998 Q 0.29475 1.9623749999999998 0.234 1.9623749999999998 M 0.5490069580078125 1.9548749999999997 Q 0.5407569580078125 1.9548749999999997 0.5362569580078125 1.9499999999999997 Q 0.5317569580078125 1.9451249999999998 0.5317569580078125 1.9376249999999997 L 0.5317569580078125 1.4471249999999998 Q 0.5317569580078125 1.4396249999999997 0.5362569580078125 1.4347499999999997 Q 0.5407569580078125 1.4298749999999996 0.5490069580078125 1.4298749999999996 L 0.5887569580078125 1.4298749999999996 Q 0.5962569580078125 1.4298749999999996 0.6011319580078125 1.4347499999999997 Q 0.6060069580078125 1.4396249999999997 0.6060069580078125 1.4471249999999998 L 0.6060069580078125 1.8896249999999997 L 0.8550069580078126 1.8896249999999997 Q 0.8632569580078124 1.8896249999999997 0.8681319580078125 1.8944999999999996 Q 0.8730069580078126 1.8993749999999996 0.8730069580078126 1.9076249999999997 L 0.8730069580078126 1.9376249999999997 Q 0.8730069580078126 1.9451249999999998 0.8681319580078125 1.9499999999999997 Q 0.8632569580078124 1.9548749999999997 0.8550069580078126 1.9548749999999997 L 0.5490069580078125 1.9548749999999997 M 0.9712481689453125 1.9548749999999997 Q 0.9629981689453125 1.9548749999999997 0.9584981689453125 1.9499999999999997 Q 0.9539981689453125 1.9451249999999998 0.9539981689453125 1.9376249999999997 L 0.9539981689453125 1.4478749999999998 Q 0.9539981689453125 1.4396249999999997 0.9584981689453125 1.4347499999999997 Q 0.9629981689453125 1.4298749999999996 0.9712481689453125 1.4298749999999996 L 1.2809981689453125 1.4298749999999996 Q 1.2892481689453126 1.4298749999999996 1.2937481689453125 1.4347499999999997 Q 1.2982481689453125 1.4396249999999997 1.2982481689453125 1.4478749999999998 L 1.2982481689453125 1.4763749999999995 Q 1.2982481689453125 1.4846249999999996 1.2937481689453125 1.4891249999999996 Q 1.2892481689453126 1.4936249999999998 1.2809981689453125 1.4936249999999998 L 1.0259981689453126 1.4936249999999998 L 1.0259981689453126 1.6578749999999998 L 1.2644981689453125 1.6578749999999998 Q 1.2727481689453124 1.6578749999999998 1.2772481689453126 1.6627499999999997 Q 1.2817481689453125 1.6676249999999997 1.2817481689453125 1.6758749999999996 L 1.2817481689453125 1.7036249999999997 Q 1.2817481689453125 1.7111249999999998 1.2772481689453126 1.7159999999999997 Q 1.2727481689453124 1.7208749999999997 1.2644981689453125 1.7208749999999997 L 1.0259981689453126 1.7208749999999997 L 1.0259981689453126 1.8911249999999997 L 1.2869981689453125 1.8911249999999997 Q 1.2952481689453126 1.8911249999999997 1.2997481689453125 1.8956249999999997 Q 1.3042481689453125 1.9001249999999996 1.3042481689453125 1.9083749999999997 L 1.3042481689453125 1.9376249999999997 Q 1.3042481689453125 1.9451249999999998 1.2997481689453125 1.9499999999999997 Q 1.2952481689453126 1.9548749999999997 1.2869981689453125 1.9548749999999997 L 0.9712481689453125 1.9548749999999997 M 1.60651171875 1.9623749999999998 Q 1.54351171875 1.9623749999999998 1.49813671875 1.9398749999999998 Q 1.45276171875 1.9173749999999996 1.4283867187500001 1.8712499999999996 Q 1.40401171875 1.8251249999999997 1.40401171875 1.7523749999999998 L 1.40401171875 1.4478749999999998 Q 1.40401171875 1.4396249999999997 1.40851171875 1.4347499999999997 Q 1.41301171875 1.4298749999999996 1.42126171875 1.4298749999999996 L 1.45951171875 1.4298749999999996 Q 1.46776171875 1.4298749999999996 1.47263671875 1.4347499999999997 Q 1.47751171875 1.4396249999999997 1.47751171875 1.4478749999999998 L 1.47751171875 1.7538749999999996 Q 1.47751171875 1.8273749999999997 1.51201171875 1.8626249999999998 Q 1.54651171875 1.8978749999999998 1.60651171875 1.8978749999999998 Q 1.66576171875 1.8978749999999998 1.70063671875 1.8626249999999998 Q 1.73551171875 1.8273749999999997 1.73551171875 1.7538749999999996 L 1.73551171875 1.4478749999999998 Q 1.73551171875 1.4396249999999997 1.74038671875 1.4347499999999997 Q 1.7452617187500001 1.4298749999999996 1.75276171875 1.4298749999999996 L 1.7917617187500001 1.4298749999999996 Q 1.79926171875 1.4298749999999996 1.8041367187500001 1.4347499999999997 Q 1.8090117187499999 1.4396249999999997 1.8090117187499999 1.4478749999999998 L 1.8090117187499999 1.7523749999999998 Q 1.8090117187499999 1.8251249999999997 1.78463671875 1.8712499999999996 Q 1.76026171875 1.9173749999999996 1.7152617187499999 1.9398749999999998 Q 1.67026171875 1.9623749999999998 1.60651171875 1.9623749999999998 M 2.0662532958984374 1.9548749999999997 Q 2.0587532958984376 1.9548749999999997 2.0538782958984374 1.9499999999999997 Q 2.0490032958984377 1.9451249999999998 2.0490032958984377 1.9376249999999997 L 2.0490032958984377 1.4966249999999997 L 1.9050032958984375 1.4966249999999997 Q 1.8975032958984375 1.4966249999999997 1.8926282958984375 1.4917499999999997 Q 1.8877532958984375 1.4868749999999997 1.8877532958984375 1.4793749999999997 L 1.8877532958984375 1.4478749999999998 Q 1.8877532958984375 1.4396249999999997 1.8926282958984375 1.4347499999999997 Q 1.8975032958984375 1.4298749999999996 1.9050032958984375 1.4298749999999996 L 2.2665032958984375 1.4298749999999996 Q 2.2747532958984373 1.4298749999999996 2.2796282958984375 1.4347499999999997 Q 2.2845032958984377 1.4396249999999997 2.2845032958984377 1.4478749999999998 L 2.2845032958984377 1.4793749999999997 Q 2.2845032958984377 1.4868749999999997 2.2796282958984375 1.4917499999999997 Q 2.2747532958984373 1.4966249999999997 2.2665032958984375 1.4966249999999997 L 2.1232532958984374 1.4966249999999997 L 2.1232532958984374 1.9376249999999997 Q 2.1232532958984374 1.9451249999999998 2.1183782958984376 1.9499999999999997 Q 2.1135032958984374 1.9548749999999997 2.1052532958984376 1.9548749999999997 L 2.0662532958984374 1.9548749999999997 M 2.3857379150390625 1.9548749999999997 Q 2.3774879150390626 1.9548749999999997 2.3729879150390625 1.9499999999999997 Q 2.3684879150390623 1.9451249999999998 2.3684879150390623 1.9376249999999997 L 2.3684879150390623 1.4478749999999998 Q 2.3684879150390623 1.4396249999999997 2.3729879150390625 1.4347499999999997 Q 2.3774879150390626 1.4298749999999996 2.3857379150390625 1.4298749999999996 L 2.6954879150390623 1.4298749999999996 Q 2.7037379150390626 1.4298749999999996 2.7082379150390627 1.4347499999999997 Q 2.7127379150390625 1.4396249999999997 2.7127379150390625 1.4478749999999998 L 2.7127379150390625 1.4763749999999995 Q 2.7127379150390625 1.4846249999999996 2.7082379150390627 1.4891249999999996 Q 2.7037379150390626 1.4936249999999998 2.6954879150390623 1.4936249999999998 L 2.4404879150390624 1.4936249999999998 L 2.4404879150390624 1.6578749999999998 L 2.6789879150390625 1.6578749999999998 Q 2.6872379150390624 1.6578749999999998 2.6917379150390626 1.6627499999999997 Q 2.6962379150390623 1.6676249999999997 2.6962379150390623 1.6758749999999996 L 2.6962379150390623 1.7036249999999997 Q 2.6962379150390623 1.7111249999999998 2.6917379150390626 1.7159999999999997 Q 2.6872379150390624 1.7208749999999997 2.6789879150390625 1.7208749999999997 L 2.4404879150390624 1.7208749999999997 L 2.4404879150390624 1.8911249999999997 L 2.7014879150390625 1.8911249999999997 Q 2.7097379150390624 1.8911249999999997 2.7142379150390625 1.8956249999999997 Q 2.7187379150390627 1.9001249999999996 2.7187379150390627 1.9083749999999997 L 2.7187379150390627 1.9376249999999997 Q 2.7187379150390627 1.9451249999999998 2.7142379150390625 1.9499999999999997 Q 2.7097379150390624 1.9548749999999997 2.7014879150390625 1.9548749999999997 L 2.3857379150390625 1.9548749999999997 M 2.84025146484375 1.9548749999999997 Q 2.83200146484375 1.9548749999999997 2.82750146484375 1.9499999999999997 Q 2.82300146484375 1.9451249999999998 2.82300146484375 1.9376249999999997 L 2.82300146484375 1.4471249999999998 Q 2.82300146484375 1.4396249999999997 2.82750146484375 1.4347499999999997 Q 2.83200146484375 1.4298749999999996 2.84025146484375 1.4298749999999996 L 2.88000146484375 1.4298749999999996 Q 2.88750146484375 1.4298749999999996 2.8923764648437498 1.4347499999999997 Q 2.89725146484375 1.4396249999999997 2.89725146484375 1.4471249999999998 L 2.89725146484375 1.8896249999999997 L 3.14625146484375 1.8896249999999997 Q 3.15450146484375 1.8896249999999997 3.15937646484375 1.8944999999999996 Q 3.16425146484375 1.8993749999999996 3.16425146484375 1.9076249999999997 L 3.16425146484375 1.9376249999999997 Q 3.16425146484375 1.9451249999999998 3.15937646484375 1.9499999999999997 Q 3.15450146484375 1.9548749999999997 3.14625146484375 1.9548749999999997 L 2.84025146484375 1.9548749999999997 M 3.41399267578125 1.9623749999999998 Q 3.34874267578125 1.9623749999999998 3.30449267578125 1.9421249999999997 Q 3.26024267578125 1.9218749999999998 3.23661767578125 1.8899999999999997 Q 3.21299267578125 1.8581249999999998 3.21149267578125 1.8228749999999998 Q 3.21149267578125 1.8168749999999996 3.21636767578125 1.8119999999999996 Q 3.22124267578125 1.8071249999999996 3.22799267578125 1.8071249999999996 L 3.26624267578125 1.8071249999999996 Q 3.27524267578125 1.8071249999999996 3.2797426757812502 1.8116249999999996 Q 3.28424267578125 1.8161249999999998 3.28574267578125 1.8221249999999998 Q 3.29024267578125 1.8401249999999998 3.30449267578125 1.8577499999999998 Q 3.31874267578125 1.8753749999999998 3.34536767578125 1.8869999999999998 Q 3.37199267578125 1.8986249999999998 3.41399267578125 1.8986249999999998 Q 3.4784926757812498 1.8986249999999998 3.50886767578125 1.8757499999999996 Q 3.53924267578125 1.8528749999999996 3.53924267578125 1.8146249999999997 Q 3.53924267578125 1.7883749999999996 3.52311767578125 1.7722499999999997 Q 3.50699267578125 1.7561249999999997 3.47399267578125 1.7433749999999997 Q 3.44099267578125 1.7306249999999996 3.38849267578125 1.7156249999999997 Q 3.33374267578125 1.6998749999999996 3.29774267578125 1.6811249999999998 Q 3.26174267578125 1.6623749999999997 3.24411767578125 1.6346249999999998 Q 3.22649267578125 1.6068749999999996 3.22649267578125 1.5641249999999998 Q 3.22649267578125 1.5236249999999996 3.24824267578125 1.4917499999999997 Q 3.26999267578125 1.4598749999999998 3.31124267578125 1.4411249999999995 Q 3.35249267578125 1.4223749999999997 3.41024267578125 1.4223749999999997 Q 3.45674267578125 1.4223749999999997 3.49161767578125 1.4347499999999997 Q 3.52649267578125 1.4471249999999998 3.54974267578125 1.4677499999999997 Q 3.57299267578125 1.4883749999999996 3.5849926757812502 1.5119999999999996 Q 3.59699267578125 1.5356249999999996 3.59774267578125 1.5581249999999998 Q 3.59774267578125 1.5633749999999997 3.59399267578125 1.5682499999999997 Q 3.59024267578125 1.5731249999999997 3.58199267578125 1.5731249999999997 L 3.54224267578125 1.5731249999999997 Q 3.53699267578125 1.5731249999999997 3.53136767578125 1.5701249999999998 Q 3.52574267578125 1.5671249999999997 3.52274267578125 1.5588749999999996 Q 3.51824267578125 1.5281249999999997 3.48824267578125 1.5071249999999996 Q 3.45824267578125 1.4861249999999997 3.41024267578125 1.4861249999999997 Q 3.3614926757812498 1.4861249999999997 3.33111767578125 1.5048749999999997 Q 3.30074267578125 1.5236249999999996 3.30074267578125 1.5633749999999997 Q 3.30074267578125 1.5888749999999998 3.31499267578125 1.6057499999999996 Q 3.32924267578125 1.6226249999999998 3.35999267578125 1.6353749999999998 Q 3.39074267578125 1.6481249999999996 3.44024267578125 1.6623749999999997 Q 3.50024267578125 1.6788749999999997 3.53849267578125 1.6972499999999997 Q 3.57674267578125 1.7156249999999997 3.59511767578125 1.7429999999999997 Q 3.61349267578125 1.7703749999999996 3.61349267578125 1.8131249999999997 Q 3.61349267578125 1.8603749999999997 3.58874267578125 1.8937499999999996 Q 3.56399267578125 1.9271249999999998 3.51936767578125 1.9447499999999998 Q 3.47474267578125 1.9623749999999998 3.41399267578125 1.9623749999999998 M 3.7289996337890625 1.9548749999999997 Q 3.7207496337890626 1.9548749999999997 3.7162496337890625 1.9499999999999997 Q 3.7117496337890623 1.9451249999999998 3.7117496337890623 1.9376249999999997 L 3.7117496337890623 1.4478749999999998 Q 3.7117496337890623 1.4396249999999997 3.7162496337890625 1.4347499999999997 Q 3.7207496337890626 1.4298749999999996 3.7289996337890625 1.4298749999999996 L 3.9194996337890626 1.4298749999999996 Q 3.9749996337890625 1.4298749999999996 4.015874633789062 1.4478749999999998 Q 4.056749633789062 1.4658749999999996 4.079249633789063 1.5014999999999996 Q 4.101749633789063 1.5371249999999996 4.101749633789063 1.5903749999999997 Q 4.101749633789063 1.6436249999999997 4.079249633789063 1.6788749999999997 Q 4.056749633789062 1.7141249999999997 4.015874633789062 1.7321249999999997 Q 3.9749996337890625 1.7501249999999997 3.9194996337890626 1.7501249999999997 L 3.7867496337890625 1.7501249999999997 L 3.7867496337890625 1.9376249999999997 Q 3.7867496337890625 1.9451249999999998 3.7818746337890623 1.9499999999999997 Q 3.7769996337890626 1.9548749999999997 3.7687496337890627 1.9548749999999997 L 3.7289996337890625 1.9548749999999997 M 3.7859996337890625 1.6871249999999998 L 3.9157496337890625 1.6871249999999998 Q 3.9712496337890624 1.6871249999999998 3.9989996337890625 1.6623749999999997 Q 4.026749633789063 1.6376249999999997 4.026749633789063 1.5903749999999997 Q 4.026749633789063 1.5438749999999997 3.9997496337890626 1.5183749999999998 Q 3.9727496337890624 1.4928749999999997 3.9157496337890625 1.4928749999999997 L 3.7859996337890625 1.4928749999999997 L 3.7859996337890625 1.6871249999999998 M 4.382271240234375 1.9623749999999998 Q 4.317771240234375 1.9623749999999998 4.272021240234375 1.9402499999999996 Q 4.226271240234375 1.9181249999999996 4.201521240234375 1.8719999999999997 Q 4.176771240234375 1.8258749999999997 4.173771240234375 1.7561249999999997 Q 4.173021240234375 1.7231249999999996 4.173021240234375 1.6927499999999998 Q 4.173021240234375 1.6623749999999997 4.173771240234375 1.6293749999999996 Q 4.176771240234375 1.5603749999999996 4.202646240234375 1.5142499999999997 Q 4.228521240234375 1.4681249999999997 4.274646240234375 1.4452499999999997 Q 4.320771240234375 1.4223749999999997 4.382271240234375 1.4223749999999997 Q 4.443021240234375 1.4223749999999997 4.489146240234375 1.4452499999999997 Q 4.535271240234375 1.4681249999999997 4.561521240234375 1.5142499999999997 Q 4.587771240234375 1.5603749999999996 4.590021240234375 1.6293749999999996 Q 4.591521240234375 1.6623749999999997 4.591521240234375 1.6927499999999998 Q 4.591521240234375 1.7231249999999996 4.590021240234375 1.7561249999999997 Q 4.587771240234375 1.8258749999999997 4.562646240234375 1.8719999999999997 Q 4.537521240234375 1.9181249999999996 4.491771240234375 1.9402499999999996 Q 4.446021240234375 1.9623749999999998 4.382271240234375 1.9623749999999998 M 4.382271240234375 1.8986249999999998 Q 4.439271240234375 1.8986249999999998 4.475646240234375 1.8641249999999996 Q 4.512021240234375 1.8296249999999996 4.5150212402343755 1.7523749999999998 Q 4.516521240234375 1.7186249999999996 4.516521240234375 1.6919999999999997 Q 4.516521240234375 1.6653749999999996 4.5150212402343755 1.6323749999999997 Q 4.513521240234375 1.5806249999999997 4.495896240234375 1.5483749999999996 Q 4.478271240234375 1.5161249999999997 4.449021240234375 1.5011249999999996 Q 4.419771240234375 1.4861249999999997 4.382271240234375 1.4861249999999997 Q 4.344771240234375 1.4861249999999997 4.315521240234375 1.5011249999999996 Q 4.286271240234375 1.5161249999999997 4.268646240234375 1.5483749999999996 Q 4.251021240234375 1.5806249999999997 4.248771240234375 1.6323749999999997 Q 4.248021240234375 1.6653749999999996 4.248021240234375 1.6919999999999997 Q 4.248021240234375 1.7186249999999996 4.248771240234375 1.7523749999999998 Q 4.251771240234375 1.8296249999999996 4.288521240234375 1.8641249999999996 Q 4.325271240234375 1.8986249999999998 4.382271240234375 1.8986249999999998 M 4.718272705078125 1.9548749999999997 Q 4.710022705078125 1.9548749999999997 4.705522705078125 1.9499999999999997 Q 4.701022705078125 1.9451249999999998 4.701022705078125 1.9376249999999997 L 4.701022705078125 1.4478749999999998 Q 4.701022705078125 1.4396249999999997 4.705522705078125 1.4347499999999997 Q 4.710022705078125 1.4298749999999996 4.718272705078125 1.4298749999999996 L 5.028022705078125 1.4298749999999996 Q 5.036272705078125 1.4298749999999996 5.040772705078125 1.4347499999999997 Q 5.045272705078125 1.4396249999999997 5.045272705078125 1.4478749999999998 L 5.045272705078125 1.4763749999999995 Q 5.045272705078125 1.4846249999999996 5.040772705078125 1.4891249999999996 Q 5.036272705078125 1.4936249999999998 5.028022705078125 1.4936249999999998 L 4.773022705078125 1.4936249999999998 L 4.773022705078125 1.6578749999999998 L 5.011522705078125 1.6578749999999998 Q 5.019772705078125 1.6578749999999998 5.024272705078125 1.6627499999999997 Q 5.028772705078125 1.6676249999999997 5.028772705078125 1.6758749999999996 L 5.028772705078125 1.7036249999999997 Q 5.028772705078125 1.7111249999999998 5.024272705078125 1.7159999999999997 Q 5.019772705078125 1.7208749999999997 5.011522705078125 1.7208749999999997 L 4.773022705078125 1.7208749999999997 L 4.773022705078125 1.8911249999999997 L 5.034022705078125 1.8911249999999997 Q 5.042272705078125 1.8911249999999997 5.046772705078125 1.8956249999999997 Q 5.051272705078125 1.9001249999999996 5.051272705078125 1.9083749999999997 L 5.051272705078125 1.9376249999999997 Q 5.051272705078125 1.9451249999999998 5.046772705078125 1.9499999999999997 Q 5.042272705078125 1.9548749999999997 5.034022705078125 1.9548749999999997 L 4.718272705078125 1.9548749999999997 M 5.172786254882812 1.9548749999999997 Q 5.164536254882813 1.9548749999999997 5.1600362548828125 1.9499999999999997 Q 5.155536254882812 1.9451249999999998 5.155536254882812 1.9376249999999997 L 5.155536254882812 1.4478749999999998 Q 5.155536254882812 1.4396249999999997 5.1600362548828125 1.4347499999999997 Q 5.164536254882813 1.4298749999999996 5.172786254882812 1.4298749999999996 L 5.343036254882812 1.4298749999999996 Q 5.420286254882813 1.4298749999999996 5.467536254882813 1.4531249999999996 Q 5.514786254882813 1.4763749999999995 5.5365362548828125 1.5217499999999997 Q 5.5582862548828125 1.5671249999999997 5.5590362548828125 1.6331249999999997 Q 5.5597862548828125 1.6668749999999997 5.5597862548828125 1.6923749999999997 Q 5.5597862548828125 1.7178749999999996 5.5590362548828125 1.7508749999999997 Q 5.557536254882812 1.8198749999999997 5.5361612548828125 1.8652499999999996 Q 5.514786254882813 1.9106249999999998 5.468661254882813 1.9327499999999997 Q 5.422536254882813 1.9548749999999997 5.3467862548828125 1.9548749999999997 L 5.172786254882812 1.9548749999999997 M 5.229036254882812 1.8911249999999997 L 5.343036254882812 1.8911249999999997 Q 5.3947862548828125 1.8911249999999997 5.425536254882813 1.8768749999999996 Q 5.456286254882812 1.8626249999999998 5.470161254882813 1.8311249999999997 Q 5.484036254882812 1.7996249999999998 5.484786254882812 1.7478749999999996 Q 5.486286254882812 1.7253749999999997 5.486286254882812 1.7084999999999997 Q 5.486286254882812 1.6916249999999997 5.486286254882812 1.6747499999999997 Q 5.486286254882812 1.6578749999999998 5.484786254882812 1.6361249999999996 Q 5.483286254882812 1.5633749999999997 5.450286254882813 1.5284999999999997 Q 5.4172862548828125 1.4936249999999998 5.339286254882812 1.4936249999999998 L 5.229036254882812 1.4936249999999998 L 5.229036254882812 1.8911249999999997 M 5.8283056640625 1.9623749999999998 Q 5.7900556640625 1.9623749999999998 5.7559306640625 1.9526249999999996 Q 5.7218056640625 1.9428749999999997 5.6951806640625 1.9233749999999996 Q 5.6685556640625 1.9038749999999998 5.6528056640625 1.8738749999999997 Q 5.6370556640625 1.8438749999999997 5.6355556640625 1.8033749999999997 Q 5.6355556640625 1.7966249999999997 5.6400556640625 1.7917499999999997 Q 5.6445556640625 1.7868749999999998 5.6520556640625 1.7868749999999998 L 5.6925556640625 1.7868749999999998 Q 5.7008056640625 1.7868749999999998 5.7056806640625 1.7917499999999997 Q 5.7105556640625 1.7966249999999997 5.7120556640625 1.8041249999999998 Q 5.7150556640625 1.8378749999999997 5.7315556640625 1.8584999999999996 Q 5.7480556640625 1.8791249999999997 5.7735556640625 1.8888749999999996 Q 5.7990556640625 1.8986249999999998 5.8298056640625 1.8986249999999998 Q 5.8868056640625 1.8986249999999998 5.9168056640625 1.8611249999999997 Q 5.9468056640625 1.8236249999999996 5.9468056640625 1.7613749999999997 L 5.9468056640625 1.4951249999999998 L 5.6805556640625 1.4951249999999998 Q 5.6730556640625 1.4951249999999998 5.6681806640625 1.4902499999999996 Q 5.6633056640625 1.4853749999999997 5.6633056640625 1.4778749999999996 L 5.6633056640625 1.4471249999999998 Q 5.6633056640625 1.4396249999999997 5.6681806640625 1.4347499999999997 Q 5.6730556640625 1.4298749999999996 5.6805556640625 1.4298749999999996 L 6.0038056640625 1.4298749999999996 Q 6.0120556640625 1.4298749999999996 6.0169306640624995 1.4347499999999997 Q 6.0218056640625 1.4396249999999997 6.0218056640625 1.4478749999999998 L 6.0218056640625 1.7628749999999997 Q 6.0218056640625 1.8236249999999996 5.9985556640625 1.8686249999999998 Q 5.9753056640625 1.9136249999999997 5.9325556640625 1.9379999999999997 Q 5.8898056640625 1.9623749999999998 5.8283056640625 1.9623749999999998 M 6.165034790039062 1.9548749999999997 Q 6.156784790039063 1.9548749999999997 6.1522847900390625 1.9499999999999997 Q 6.147784790039062 1.9451249999999998 6.147784790039062 1.9376249999999997 L 6.147784790039062 1.4478749999999998 Q 6.147784790039062 1.4396249999999997 6.1522847900390625 1.4347499999999997 Q 6.156784790039063 1.4298749999999996 6.165034790039062 1.4298749999999996 L 6.474784790039062 1.4298749999999996 Q 6.483034790039063 1.4298749999999996 6.487534790039063 1.4347499999999997 Q 6.492034790039063 1.4396249999999997 6.492034790039063 1.4478749999999998 L 6.492034790039063 1.4763749999999995 Q 6.492034790039063 1.4846249999999996 6.487534790039063 1.4891249999999996 Q 6.483034790039063 1.4936249999999998 6.474784790039062 1.4936249999999998 L 6.219784790039062 1.4936249999999998 L 6.219784790039062 1.6578749999999998 L 6.4582847900390625 1.6578749999999998 Q 6.466534790039063 1.6578749999999998 6.471034790039062 1.6627499999999997 Q 6.475534790039062 1.6676249999999997 6.475534790039062 1.6758749999999996 L 6.475534790039062 1.7036249999999997 Q 6.475534790039062 1.7111249999999998 6.471034790039062 1.7159999999999997 Q 6.466534790039063 1.7208749999999997 6.4582847900390625 1.7208749999999997 L 6.219784790039062 1.7208749999999997 L 6.219784790039062 1.8911249999999997 L 6.4807847900390625 1.8911249999999997 Q 6.489034790039063 1.8911249999999997 6.493534790039062 1.8956249999999997 Q 6.498034790039062 1.9001249999999996 6.498034790039062 1.9083749999999997 L 6.498034790039062 1.9376249999999997 Q 6.498034790039062 1.9451249999999998 6.493534790039062 1.9499999999999997 Q 6.489034790039063 1.9548749999999997 6.4807847900390625 1.9548749999999997 L 6.165034790039062 1.9548749999999997 M 6.71929833984375 1.8318749999999997 Q 6.71254833984375 1.8318749999999997 6.70804833984375 1.8277499999999998 Q 6.70354833984375 1.8236249999999996 6.70354833984375 1.8161249999999998 Q 6.70354833984375 1.8086249999999997 6.70354833984375 1.8011249999999996 Q 6.70354833984375 1.7936249999999996 6.70354833984375 1.7861249999999997 Q 6.70504833984375 1.7538749999999996 6.71779833984375 1.7291249999999998 Q 6.73054833984375 1.7043749999999998 6.74892333984375 1.6841249999999997 Q 6.76729833984375 1.6638749999999998 6.78604833984375 1.6454999999999997 Q 6.80479833984375 1.6271249999999997 6.81792333984375 1.6083749999999997 Q 6.83104833984375 1.5896249999999996 6.83404833984375 1.5686249999999997 Q 6.83704833984375 1.5416249999999998 6.82354833984375 1.5232499999999995 Q 6.81004833984375 1.5048749999999997 6.78679833984375 1.4951249999999998 Q 6.76354833984375 1.4853749999999997 6.73879833984375 1.4853749999999997 Q 6.69904833984375 1.4853749999999997 6.67092333984375 1.5059999999999998 Q 6.64279833984375 1.5266249999999997 6.63379833984375 1.5753749999999997 Q 6.63154833984375 1.5843749999999996 6.62629833984375 1.5881249999999998 Q 6.62104833984375 1.5918749999999997 6.61429833984375 1.5918749999999997 L 6.57829833984375 1.5918749999999997 Q 6.57154833984375 1.5918749999999997 6.56667333984375 1.5873749999999998 Q 6.56179833984375 1.5828749999999996 6.56179833984375 1.5753749999999997 Q 6.56254833984375 1.5446249999999997 6.57529833984375 1.5168749999999998 Q 6.58804833984375 1.4891249999999996 6.61167333984375 1.4681249999999997 Q 6.63529833984375 1.4471249999999998 6.66792333984375 1.4347499999999997 Q 6.70054833984375 1.4223749999999997 6.74104833984375 1.4223749999999997 Q 6.78679833984375 1.4223749999999997 6.81942333984375 1.4347499999999997 Q 6.85204833984375 1.4471249999999998 6.87192333984375 1.4677499999999997 Q 6.89179833984375 1.4883749999999996 6.90079833984375 1.5131249999999996 Q 6.90979833984375 1.5378749999999997 6.90829833984375 1.5626249999999997 Q 6.90604833984375 1.5926249999999997 6.89329833984375 1.6162499999999997 Q 6.88054833984375 1.6398749999999997 6.86254833984375 1.6597499999999996 Q 6.84454833984375 1.6796249999999997 6.82617333984375 1.6987499999999998 Q 6.80779833984375 1.7178749999999996 6.79504833984375 1.7384999999999997 Q 6.78229833984375 1.7591249999999996 6.78004833984375 1.7831249999999996 Q 6.77929833984375 1.7913749999999997 6.77892333984375 1.7992499999999998 Q 6.77854833984375 1.8071249999999996 6.77854833984375 1.8146249999999997 Q 6.77704833984375 1.8228749999999998 6.77254833984375 1.8273749999999997 Q 6.76804833984375 1.8318749999999997 6.75979833984375 1.8318749999999997 L 6.71929833984375 1.8318749999999997 M 6.71329833984375 1.9548749999999997 Q 6.70579833984375 1.9548749999999997 6.70092333984375 1.9499999999999997 Q 6.69604833984375 1.9451249999999998 6.69604833984375 1.9376249999999997 L 6.69604833984375 1.8918749999999998 Q 6.69604833984375 1.8843749999999997 6.70092333984375 1.8794999999999997 Q 6.70579833984375 1.8746249999999998 6.71329833984375 1.8746249999999998 L 6.76204833984375 1.8746249999999998 Q 6.77029833984375 1.8746249999999998 6.77517333984375 1.8794999999999997 Q 6.78004833984375 1.8843749999999997 6.78004833984375 1.8918749999999998 L 6.78004833984375 1.9376249999999997 Q 6.78004833984375 1.9451249999999998 6.77517333984375 1.9499999999999997 Q 6.77029833984375 1.9548749999999997 6.76204833984375 1.9548749999999997 L 6.71329833984375 1.9548749999999997 M 7.017802734375 1.9548749999999997 Q 7.010302734375 1.9548749999999997 7.005427734375 1.9499999999999997 Q 7.000552734375 1.9451249999999998 7.000552734375 1.9376249999999997 L 7.000552734375 1.4478749999999998 Q 7.000552734375 1.4396249999999997 7.005427734375 1.4347499999999997 Q 7.010302734375 1.4298749999999996 7.017802734375 1.4298749999999996 L 7.055302734375 1.4298749999999996 Q 7.064302734375 1.4298749999999996 7.068802734375 1.4343749999999997 Q 7.073302734375 1.4388749999999997 7.074802734375 1.4418749999999996 L 7.233052734375 1.7448749999999997 L 7.392802734375 1.4418749999999996 Q 7.394302734375 1.4388749999999997 7.398427734375 1.4343749999999997 Q 7.402552734375 1.4298749999999996 7.411552734375 1.4298749999999996 L 7.448302734375 1.4298749999999996 Q 7.456552734375 1.4298749999999996 7.461427734375 1.4347499999999997 Q 7.466302734375 1.4396249999999997 7.466302734375 1.4478749999999998 L 7.466302734375 1.9376249999999997 Q 7.466302734375 1.9451249999999998 7.461427734375 1.9499999999999997 Q 7.456552734375 1.9548749999999997 7.448302734375 1.9548749999999997 L 7.411552734375 1.9548749999999997 Q 7.404052734375 1.9548749999999997 7.399177734375 1.9499999999999997 Q 7.394302734375 1.9451249999999998 7.394302734375 1.9376249999999997 L 7.394302734375 1.5686249999999997 L 7.269052734375 1.8131249999999997 Q 7.266052734375 1.8206249999999997 7.260052734375 1.8247499999999997 Q 7.254052734375 1.8288749999999996 7.245052734375 1.8288749999999996 L 7.221802734375 1.8288749999999996 Q 7.212052734375 1.8288749999999996 7.206802734375 1.8247499999999997 Q 7.201552734375 1.8206249999999997 7.197802734375 1.8131249999999997 L 7.071802734375 1.5686249999999997 L 7.071802734375 1.9376249999999997 Q 7.071802734375 1.9451249999999998 7.066927734375 1.9499999999999997 Q 7.062052734375 1.9548749999999997 7.054552734375 1.9548749999999997 L 7.017802734375 1.9548749999999997 M 7.613307495117187 1.9548749999999997 Q 7.605057495117188 1.9548749999999997 7.6005574951171875 1.9499999999999997 Q 7.596057495117187 1.9451249999999998 7.596057495117187 1.9376249999999997 L 7.596057495117187 1.4478749999999998 Q 7.596057495117187 1.4396249999999997 7.6005574951171875 1.4347499999999997 Q 7.605057495117188 1.4298749999999996 7.613307495117187 1.4298749999999996 L 7.923057495117187 1.4298749999999996 Q 7.931307495117188 1.4298749999999996 7.935807495117188 1.4347499999999997 Q 7.940307495117188 1.4396249999999997 7.940307495117188 1.4478749999999998 L 7.940307495117188 1.4763749999999995 Q 7.940307495117188 1.4846249999999996 7.935807495117188 1.4891249999999996 Q 7.931307495117188 1.4936249999999998 7.923057495117187 1.4936249999999998 L 7.668057495117187 1.4936249999999998 L 7.668057495117187 1.6578749999999998 L 7.9065574951171875 1.6578749999999998 Q 7.914807495117188 1.6578749999999998 7.919307495117187 1.6627499999999997 Q 7.923807495117187 1.6676249999999997 7.923807495117187 1.6758749999999996 L 7.923807495117187 1.7036249999999997 Q 7.923807495117187 1.7111249999999998 7.919307495117187 1.7159999999999997 Q 7.914807495117188 1.7208749999999997 7.9065574951171875 1.7208749999999997 L 7.668057495117187 1.7208749999999997 L 7.668057495117187 1.8911249999999997 L 7.9290574951171875 1.8911249999999997 Q 7.937307495117188 1.8911249999999997 7.941807495117187 1.8956249999999997 Q 7.946307495117187 1.9001249999999996 7.946307495117187 1.9083749999999997 L 7.946307495117187 1.9376249999999997 Q 7.946307495117187 1.9451249999999998 7.941807495117187 1.9499999999999997 Q 7.937307495117188 1.9548749999999997 7.9290574951171875 1.9548749999999997 L 7.613307495117187 1.9548749999999997 M 8.182571044921875 1.9548749999999997 Q 8.175071044921875 1.9548749999999997 8.170196044921875 1.9499999999999997 Q 8.165321044921875 1.9451249999999998 8.165321044921875 1.9376249999999997 L 8.165321044921875 1.4966249999999997 L 8.021321044921875 1.4966249999999997 Q 8.013821044921874 1.4966249999999997 8.008946044921874 1.4917499999999997 Q 8.004071044921876 1.4868749999999997 8.004071044921876 1.4793749999999997 L 8.004071044921876 1.4478749999999998 Q 8.004071044921876 1.4396249999999997 8.008946044921874 1.4347499999999997 Q 8.013821044921874 1.4298749999999996 8.021321044921875 1.4298749999999996 L 8.382821044921876 1.4298749999999996 Q 8.391071044921874 1.4298749999999996 8.395946044921875 1.4347499999999997 Q 8.400821044921875 1.4396249999999997 8.400821044921875 1.4478749999999998 L 8.400821044921875 1.4793749999999997 Q 8.400821044921875 1.4868749999999997 8.395946044921875 1.4917499999999997 Q 8.391071044921874 1.4966249999999997 8.382821044921876 1.4966249999999997 L 8.239571044921876 1.4966249999999997 L 8.239571044921876 1.9376249999999997 Q 8.239571044921876 1.9451249999999998 8.234696044921876 1.9499999999999997 Q 8.229821044921875 1.9548749999999997 8.221571044921875 1.9548749999999997 L 8.182571044921875 1.9548749999999997 M 8.81853369140625 1.9623749999999998 Q 8.75328369140625 1.9623749999999998 8.70903369140625 1.9421249999999997 Q 8.66478369140625 1.9218749999999998 8.64115869140625 1.8899999999999997 Q 8.61753369140625 1.8581249999999998 8.61603369140625 1.8228749999999998 Q 8.61603369140625 1.8168749999999996 8.62090869140625 1.8119999999999996 Q 8.62578369140625 1.8071249999999996 8.63253369140625 1.8071249999999996 L 8.67078369140625 1.8071249999999996 Q 8.67978369140625 1.8071249999999996 8.68428369140625 1.8116249999999996 Q 8.68878369140625 1.8161249999999998 8.69028369140625 1.8221249999999998 Q 8.69478369140625 1.8401249999999998 8.70903369140625 1.8577499999999998 Q 8.72328369140625 1.8753749999999998 8.74990869140625 1.8869999999999998 Q 8.77653369140625 1.8986249999999998 8.81853369140625 1.8986249999999998 Q 8.88303369140625 1.8986249999999998 8.91340869140625 1.8757499999999996 Q 8.94378369140625 1.8528749999999996 8.94378369140625 1.8146249999999997 Q 8.94378369140625 1.7883749999999996 8.92765869140625 1.7722499999999997 Q 8.91153369140625 1.7561249999999997 8.87853369140625 1.7433749999999997 Q 8.84553369140625 1.7306249999999996 8.79303369140625 1.7156249999999997 Q 8.73828369140625 1.6998749999999996 8.70228369140625 1.6811249999999998 Q 8.66628369140625 1.6623749999999997 8.64865869140625 1.6346249999999998 Q 8.63103369140625 1.6068749999999996 8.63103369140625 1.5641249999999998 Q 8.63103369140625 1.5236249999999996 8.65278369140625 1.4917499999999997 Q 8.67453369140625 1.4598749999999998 8.71578369140625 1.4411249999999995 Q 8.75703369140625 1.4223749999999997 8.81478369140625 1.4223749999999997 Q 8.86128369140625 1.4223749999999997 8.89615869140625 1.4347499999999997 Q 8.93103369140625 1.4471249999999998 8.95428369140625 1.4677499999999997 Q 8.97753369140625 1.4883749999999996 8.98953369140625 1.5119999999999996 Q 9.00153369140625 1.5356249999999996 9.00228369140625 1.5581249999999998 Q 9.00228369140625 1.5633749999999997 8.99853369140625 1.5682499999999997 Q 8.99478369140625 1.5731249999999997 8.98653369140625 1.5731249999999997 L 8.94678369140625 1.5731249999999997 Q 8.94153369140625 1.5731249999999997 8.93590869140625 1.5701249999999998 Q 8.93028369140625 1.5671249999999997 8.92728369140625 1.5588749999999996 Q 8.92278369140625 1.5281249999999997 8.89278369140625 1.5071249999999996 Q 8.86278369140625 1.4861249999999997 8.81478369140625 1.4861249999999997 Q 8.76603369140625 1.4861249999999997 8.73565869140625 1.5048749999999997 Q 8.70528369140625 1.5236249999999996 8.70528369140625 1.5633749999999997 Q 8.70528369140625 1.5888749999999998 8.71953369140625 1.6057499999999996 Q 8.73378369140625 1.6226249999999998 8.76453369140625 1.6353749999999998 Q 8.79528369140625 1.6481249999999996 8.84478369140625 1.6623749999999997 Q 8.90478369140625 1.6788749999999997 8.94303369140625 1.6972499999999997 Q 8.98128369140625 1.7156249999999997 8.99965869140625 1.7429999999999997 Q 9.01803369140625 1.7703749999999996 9.01803369140625 1.8131249999999997 Q 9.01803369140625 1.8603749999999997 8.99328369140625 1.8937499999999996 Q 8.96853369140625 1.9271249999999998 8.92390869140625 1.9447499999999998 Q 8.87928369140625 1.9623749999999998 8.81853369140625 1.9623749999999998 M 9.133540649414062 1.9548749999999997 Q 9.125290649414062 1.9548749999999997 9.120790649414063 1.9499999999999997 Q 9.116290649414063 1.9451249999999998 9.116290649414063 1.9376249999999997 L 9.116290649414063 1.4478749999999998 Q 9.116290649414063 1.4396249999999997 9.120790649414063 1.4347499999999997 Q 9.125290649414062 1.4298749999999996 9.133540649414062 1.4298749999999996 L 9.324040649414062 1.4298749999999996 Q 9.379540649414063 1.4298749999999996 9.420415649414062 1.4478749999999998 Q 9.461290649414062 1.4658749999999996 9.483790649414063 1.5014999999999996 Q 9.506290649414062 1.5371249999999996 9.506290649414062 1.5903749999999997 Q 9.506290649414062 1.6436249999999997 9.483790649414063 1.6788749999999997 Q 9.461290649414062 1.7141249999999997 9.420415649414062 1.7321249999999997 Q 9.379540649414063 1.7501249999999997 9.324040649414062 1.7501249999999997 L 9.191290649414062 1.7501249999999997 L 9.191290649414062 1.9376249999999997 Q 9.191290649414062 1.9451249999999998 9.186415649414062 1.9499999999999997 Q 9.181540649414062 1.9548749999999997 9.173290649414062 1.9548749999999997 L 9.133540649414062 1.9548749999999997 M 9.190540649414062 1.6871249999999998 L 9.320290649414062 1.6871249999999998 Q 9.375790649414062 1.6871249999999998 9.403540649414062 1.6623749999999997 Q 9.431290649414063 1.6376249999999997 9.431290649414063 1.5903749999999997 Q 9.431290649414063 1.5438749999999997 9.404290649414062 1.5183749999999998 Q 9.377290649414062 1.4928749999999997 9.320290649414062 1.4928749999999997 L 9.190540649414062 1.4928749999999997 L 9.190540649414062 1.6871249999999998 M 9.786812255859376 1.9623749999999998 Q 9.722312255859375 1.9623749999999998 9.676562255859375 1.9402499999999996 Q 9.630812255859375 1.9181249999999996 9.606062255859374 1.8719999999999997 Q 9.581312255859375 1.8258749999999997 9.578312255859375 1.7561249999999997 Q 9.577562255859375 1.7231249999999996 9.577562255859375 1.6927499999999998 Q 9.577562255859375 1.6623749999999997 9.578312255859375 1.6293749999999996 Q 9.581312255859375 1.5603749999999996 9.607187255859374 1.5142499999999997 Q 9.633062255859375 1.4681249999999997 9.679187255859375 1.4452499999999997 Q 9.725312255859375 1.4223749999999997 9.786812255859376 1.4223749999999997 Q 9.847562255859375 1.4223749999999997 9.893687255859374 1.4452499999999997 Q 9.939812255859374 1.4681249999999997 9.966062255859375 1.5142499999999997 Q 9.992312255859375 1.5603749999999996 9.994562255859375 1.6293749999999996 Q 9.996062255859375 1.6623749999999997 9.996062255859375 1.6927499999999998 Q 9.996062255859375 1.7231249999999996 9.994562255859375 1.7561249999999997 Q 9.992312255859375 1.8258749999999997 9.967187255859375 1.8719999999999997 Q 9.942062255859375 1.9181249999999996 9.896312255859375 1.9402499999999996 Q 9.850562255859375 1.9623749999999998 9.786812255859376 1.9623749999999998 M 9.786812255859376 1.8986249999999998 Q 9.843812255859374 1.8986249999999998 9.880187255859376 1.8641249999999996 Q 9.916562255859375 1.8296249999999996 9.919562255859375 1.7523749999999998 Q 9.921062255859376 1.7186249999999996 9.921062255859376 1.6919999999999997 Q 9.921062255859376 1.6653749999999996 9.919562255859375 1.6323749999999997 Q 9.918062255859375 1.5806249999999997 9.900437255859375 1.5483749999999996 Q 9.882812255859376 1.5161249999999997 9.853562255859375 1.5011249999999996 Q 9.824312255859375 1.4861249999999997 9.786812255859376 1.4861249999999997 Q 9.749312255859374 1.4861249999999997 9.720062255859375 1.5011249999999996 Q 9.690812255859376 1.5161249999999997 9.673187255859375 1.5483749999999996 Q 9.655562255859374 1.5806249999999997 9.653312255859374 1.6323749999999997 Q 9.652562255859374 1.6653749999999996 9.652562255859374 1.6919999999999997 Q 9.652562255859374 1.7186249999999996 9.653312255859374 1.7523749999999998 Q 9.656312255859374 1.8296249999999996 9.693062255859376 1.8641249999999996 Q 9.729812255859375 1.8986249999999998 9.786812255859376 1.8986249999999998 M 10.122813720703125 1.9548749999999997 Q 10.114563720703124 1.9548749999999997 10.110063720703126 1.9499999999999997 Q 10.105563720703126 1.9451249999999998 10.105563720703126 1.9376249999999997 L 10.105563720703126 1.4478749999999998 Q 10.105563720703126 1.4396249999999997 10.110063720703126 1.4347499999999997 Q 10.114563720703124 1.4298749999999996 10.122813720703125 1.4298749999999996 L 10.432563720703126 1.4298749999999996 Q 10.440813720703124 1.4298749999999996 10.445313720703124 1.4347499999999997 Q 10.449813720703125 1.4396249999999997 10.449813720703125 1.4478749999999998 L 10.449813720703125 1.4763749999999995 Q 10.449813720703125 1.4846249999999996 10.445313720703124 1.4891249999999996 Q 10.440813720703124 1.4936249999999998 10.432563720703126 1.4936249999999998 L 10.177563720703125 1.4936249999999998 L 10.177563720703125 1.6578749999999998 L 10.416063720703125 1.6578749999999998 Q 10.424313720703125 1.6578749999999998 10.428813720703126 1.6627499999999997 Q 10.433313720703126 1.6676249999999997 10.433313720703126 1.6758749999999996 L 10.433313720703126 1.7036249999999997 Q 10.433313720703126 1.7111249999999998 10.428813720703126 1.7159999999999997 Q 10.424313720703125 1.7208749999999997 10.416063720703125 1.7208749999999997 L 10.177563720703125 1.7208749999999997 L 10.177563720703125 1.8911249999999997 L 10.438563720703126 1.8911249999999997 Q 10.446813720703124 1.8911249999999997 10.451313720703125 1.8956249999999997 Q 10.455813720703125 1.9001249999999996 10.455813720703125 1.9083749999999997 L 10.455813720703125 1.9376249999999997 Q 10.455813720703125 1.9451249999999998 10.451313720703125 1.9499999999999997 Q 10.446813720703124 1.9548749999999997 10.438563720703126 1.9548749999999997 L 10.122813720703125 1.9548749999999997 M 10.577327270507812 1.9548749999999997 Q 10.569077270507812 1.9548749999999997 10.564577270507813 1.9499999999999997 Q 10.560077270507813 1.9451249999999998 10.560077270507813 1.9376249999999997 L 10.560077270507813 1.4478749999999998 Q 10.560077270507813 1.4396249999999997 10.564577270507813 1.4347499999999997 Q 10.569077270507812 1.4298749999999996 10.577327270507812 1.4298749999999996 L 10.747577270507813 1.4298749999999996 Q 10.824827270507813 1.4298749999999996 10.872077270507813 1.4531249999999996 Q 10.919327270507813 1.4763749999999995 10.941077270507812 1.5217499999999997 Q 10.962827270507812 1.5671249999999997 10.963577270507812 1.6331249999999997 Q 10.964327270507813 1.6668749999999997 10.964327270507813 1.6923749999999997 Q 10.964327270507813 1.7178749999999996 10.963577270507812 1.7508749999999997 Q 10.962077270507812 1.8198749999999997 10.940702270507813 1.8652499999999996 Q 10.919327270507813 1.9106249999999998 10.873202270507813 1.9327499999999997 Q 10.827077270507813 1.9548749999999997 10.751327270507813 1.9548749999999997 L 10.577327270507812 1.9548749999999997 M 10.633577270507812 1.8911249999999997 L 10.747577270507813 1.8911249999999997 Q 10.799327270507813 1.8911249999999997 10.830077270507813 1.8768749999999996 Q 10.860827270507812 1.8626249999999998 10.874702270507813 1.8311249999999997 Q 10.888577270507813 1.7996249999999998 10.889327270507813 1.7478749999999996 Q 10.890827270507813 1.7253749999999997 10.890827270507813 1.7084999999999997 Q 10.890827270507813 1.6916249999999997 10.890827270507813 1.6747499999999997 Q 10.890827270507813 1.6578749999999998 10.889327270507813 1.6361249999999996 Q 10.887827270507813 1.5633749999999997 10.854827270507812 1.5284999999999997 Q 10.821827270507812 1.4936249999999998 10.743827270507813 1.4936249999999998 L 10.633577270507812 1.4936249999999998 L 10.633577270507812 1.8911249999999997 M 11.277843017578125 1.9548749999999997 Q 11.269593017578124 1.9548749999999997 11.265093017578126 1.9499999999999997 Q 11.260593017578126 1.9451249999999998 11.260593017578126 1.9376249999999997 L 11.260593017578126 1.4478749999999998 Q 11.260593017578126 1.4396249999999997 11.265093017578126 1.4347499999999997 Q 11.269593017578124 1.4298749999999996 11.277843017578125 1.4298749999999996 L 11.483343017578125 1.4298749999999996 Q 11.539593017578126 1.4298749999999996 11.575218017578125 1.4482499999999998 Q 11.610843017578125 1.4666249999999996 11.627718017578125 1.4981249999999997 Q 11.644593017578124 1.5296249999999998 11.644593017578124 1.5686249999999997 Q 11.644593017578124 1.5993749999999998 11.634468017578126 1.6214999999999997 Q 11.624343017578125 1.6436249999999997 11.609343017578125 1.6574999999999998 Q 11.594343017578126 1.6713749999999996 11.580093017578125 1.6788749999999997 Q 11.609343017578125 1.6931249999999998 11.632218017578126 1.7253749999999997 Q 11.655093017578125 1.7576249999999998 11.655093017578125 1.8033749999999997 Q 11.655093017578125 1.8446249999999997 11.636343017578126 1.8791249999999997 Q 11.617593017578125 1.9136249999999997 11.580468017578125 1.9342499999999998 Q 11.543343017578126 1.9548749999999997 11.489343017578125 1.9548749999999997 L 11.277843017578125 1.9548749999999997 M 11.334093017578125 1.8941249999999996 L 11.479593017578125 1.8941249999999996 Q 11.527593017578125 1.8941249999999996 11.553843017578124 1.8678749999999997 Q 11.580093017578125 1.8416249999999996 11.580093017578125 1.8033749999999997 Q 11.580093017578125 1.7636249999999998 11.553843017578124 1.7377499999999997 Q 11.527593017578125 1.7118749999999996 11.479593017578125 1.7118749999999996 L 11.334093017578125 1.7118749999999996 L 11.334093017578125 1.8941249999999996 M 11.334093017578125 1.6518749999999998 L 11.472093017578125 1.6518749999999998 Q 11.520093017578125 1.6518749999999998 11.544843017578126 1.6297499999999996 Q 11.569593017578125 1.6076249999999996 11.569593017578125 1.5693749999999997 Q 11.569593017578125 1.5311249999999996 11.544843017578126 1.5108749999999997 Q 11.520093017578125 1.4906249999999996 11.472093017578125 1.4906249999999996 L 11.334093017578125 1.4906249999999996 L 11.334093017578125 1.6518749999999998 M 11.778865356445312 1.9548749999999997 Q 11.770615356445312 1.9548749999999997 11.766115356445313 1.9499999999999997 Q 11.761615356445313 1.9451249999999998 11.761615356445313 1.9376249999999997 L 11.761615356445313 1.4471249999999998 Q 11.761615356445313 1.4396249999999997 11.766115356445313 1.4347499999999997 Q 11.770615356445312 1.4298749999999996 11.778865356445312 1.4298749999999996 L 11.818615356445312 1.4298749999999996 Q 11.826865356445312 1.4298749999999996 11.831365356445312 1.4347499999999997 Q 11.835865356445312 1.4396249999999997 11.835865356445312 1.4471249999999998 L 11.835865356445312 1.9376249999999997 Q 11.835865356445312 1.9451249999999998 11.831365356445312 1.9499999999999997 Q 11.826865356445312 1.9548749999999997 11.818615356445312 1.9548749999999997 L 11.778865356445312 1.9548749999999997 M 12.122373046875 1.9623749999999998 Q 12.084123046875 1.9623749999999998 12.049998046875 1.9526249999999996 Q 12.015873046875 1.9428749999999997 11.989248046875 1.9233749999999996 Q 11.962623046875 1.9038749999999998 11.946873046875 1.8738749999999997 Q 11.931123046875 1.8438749999999997 11.929623046875 1.8033749999999997 Q 11.929623046875 1.7966249999999997 11.934123046875 1.7917499999999997 Q 11.938623046875 1.7868749999999998 11.946123046875 1.7868749999999998 L 11.986623046875 1.7868749999999998 Q 11.994873046875 1.7868749999999998 11.999748046875 1.7917499999999997 Q 12.004623046875 1.7966249999999997 12.006123046875 1.8041249999999998 Q 12.009123046875 1.8378749999999997 12.025623046875 1.8584999999999996 Q 12.042123046875 1.8791249999999997 12.067623046875 1.8888749999999996 Q 12.093123046875 1.8986249999999998 12.123873046875 1.8986249999999998 Q 12.180873046875 1.8986249999999998 12.210873046875 1.8611249999999997 Q 12.240873046875 1.8236249999999996 12.240873046875 1.7613749999999997 L 12.240873046875 1.4951249999999998 L 11.974623046875 1.4951249999999998 Q 11.967123046875 1.4951249999999998 11.962248046875 1.4902499999999996 Q 11.957373046875 1.4853749999999997 11.957373046875 1.4778749999999996 L 11.957373046875 1.4471249999999998 Q 11.957373046875 1.4396249999999997 11.962248046875 1.4347499999999997 Q 11.967123046875 1.4298749999999996 11.974623046875 1.4298749999999996 L 12.297873046875 1.4298749999999996 Q 12.306123046875 1.4298749999999996 12.310998046875 1.4347499999999997 Q 12.315873046875 1.4396249999999997 12.315873046875 1.4478749999999998 L 12.315873046875 1.7628749999999997 Q 12.315873046875 1.8236249999999996 12.292623046875 1.8686249999999998 Q 12.269373046875 1.9136249999999997 12.226623046875 1.9379999999999997 Q 12.183873046875 1.9623749999999998 12.122373046875 1.9623749999999998 M 12.781598510742187 1.9623749999999998 Q 12.743348510742187 1.9623749999999998 12.709223510742188 1.9526249999999996 Q 12.675098510742188 1.9428749999999997 12.648473510742187 1.9233749999999996 Q 12.621848510742188 1.9038749999999998 12.606098510742187 1.8738749999999997 Q 12.590348510742187 1.8438749999999997 12.588848510742187 1.8033749999999997 Q 12.588848510742187 1.7966249999999997 12.593348510742187 1.7917499999999997 Q 12.597848510742187 1.7868749999999998 12.605348510742187 1.7868749999999998 L 12.645848510742187 1.7868749999999998 Q 12.654098510742188 1.7868749999999998 12.658973510742188 1.7917499999999997 Q 12.663848510742188 1.7966249999999997 12.665348510742188 1.8041249999999998 Q 12.668348510742188 1.8378749999999997 12.684848510742187 1.8584999999999996 Q 12.701348510742188 1.8791249999999997 12.726848510742187 1.8888749999999996 Q 12.752348510742188 1.8986249999999998 12.783098510742187 1.8986249999999998 Q 12.840098510742187 1.8986249999999998 12.870098510742187 1.8611249999999997 Q 12.900098510742188 1.8236249999999996 12.900098510742188 1.7613749999999997 L 12.900098510742188 1.4951249999999998 L 12.633848510742187 1.4951249999999998 Q 12.626348510742188 1.4951249999999998 12.621473510742188 1.4902499999999996 Q 12.616598510742188 1.4853749999999997 12.616598510742188 1.4778749999999996 L 12.616598510742188 1.4471249999999998 Q 12.616598510742188 1.4396249999999997 12.621473510742188 1.4347499999999997 Q 12.626348510742188 1.4298749999999996 12.633848510742187 1.4298749999999996 L 12.957098510742188 1.4298749999999996 Q 12.965348510742187 1.4298749999999996 12.970223510742187 1.4347499999999997 Q 12.975098510742187 1.4396249999999997 12.975098510742187 1.4478749999999998 L 12.975098510742187 1.7628749999999997 Q 12.975098510742187 1.8236249999999996 12.951848510742188 1.8686249999999998 Q 12.928598510742187 1.9136249999999997 12.885848510742187 1.9379999999999997 Q 12.843098510742188 1.9623749999999998 12.781598510742187 1.9623749999999998 M 13.29007763671875 1.9623749999999998 Q 13.22557763671875 1.9623749999999998 13.17982763671875 1.9402499999999996 Q 13.13407763671875 1.9181249999999996 13.10932763671875 1.8719999999999997 Q 13.08457763671875 1.8258749999999997 13.08157763671875 1.7561249999999997 Q 13.08082763671875 1.7231249999999996 13.08082763671875 1.6927499999999998 Q 13.08082763671875 1.6623749999999997 13.08157763671875 1.6293749999999996 Q 13.08457763671875 1.5603749999999996 13.11045263671875 1.5142499999999997 Q 13.13632763671875 1.4681249999999997 13.18245263671875 1.4452499999999997 Q 13.22857763671875 1.4223749999999997 13.29007763671875 1.4223749999999997 Q 13.35082763671875 1.4223749999999997 13.39695263671875 1.4452499999999997 Q 13.44307763671875 1.4681249999999997 13.46932763671875 1.5142499999999997 Q 13.49557763671875 1.5603749999999996 13.49782763671875 1.6293749999999996 Q 13.49932763671875 1.6623749999999997 13.49932763671875 1.6927499999999998 Q 13.49932763671875 1.7231249999999996 13.49782763671875 1.7561249999999997 Q 13.49557763671875 1.8258749999999997 13.47045263671875 1.8719999999999997 Q 13.44532763671875 1.9181249999999996 13.39957763671875 1.9402499999999996 Q 13.35382763671875 1.9623749999999998 13.29007763671875 1.9623749999999998 M 13.29007763671875 1.8986249999999998 Q 13.34707763671875 1.8986249999999998 13.38345263671875 1.8641249999999996 Q 13.41982763671875 1.8296249999999996 13.42282763671875 1.7523749999999998 Q 13.42432763671875 1.7186249999999996 13.42432763671875 1.6919999999999997 Q 13.42432763671875 1.6653749999999996 13.42282763671875 1.6323749999999997 Q 13.42132763671875 1.5806249999999997 13.40370263671875 1.5483749999999996 Q 13.38607763671875 1.5161249999999997 13.35682763671875 1.5011249999999996 Q 13.32757763671875 1.4861249999999997 13.29007763671875 1.4861249999999997 Q 13.25257763671875 1.4861249999999997 13.22332763671875 1.5011249999999996 Q 13.19407763671875 1.5161249999999997 13.17645263671875 1.5483749999999996 Q 13.15882763671875 1.5806249999999997 13.15657763671875 1.6323749999999997 Q 13.15582763671875 1.6653749999999996 13.15582763671875 1.6919999999999997 Q 13.15582763671875 1.7186249999999996 13.15657763671875 1.7523749999999998 Q 13.15957763671875 1.8296249999999996 13.19632763671875 1.8641249999999996 Q 13.23307763671875 1.8986249999999998 13.29007763671875 1.8986249999999998 M 13.8068291015625 1.9623749999999998 Q 13.7438291015625 1.9623749999999998 13.6984541015625 1.9398749999999998 Q 13.6530791015625 1.9173749999999996 13.6287041015625 1.8712499999999996 Q 13.6043291015625 1.8251249999999997 13.6043291015625 1.7523749999999998 L 13.6043291015625 1.4478749999999998 Q 13.6043291015625 1.4396249999999997 13.6088291015625 1.4347499999999997 Q 13.6133291015625 1.4298749999999996 13.6215791015625 1.4298749999999996 L 13.6598291015625 1.4298749999999996 Q 13.6680791015625 1.4298749999999996 13.6729541015625 1.4347499999999997 Q 13.6778291015625 1.4396249999999997 13.6778291015625 1.4478749999999998 L 13.6778291015625 1.7538749999999996 Q 13.6778291015625 1.8273749999999997 13.7123291015625 1.8626249999999998 Q 13.7468291015625 1.8978749999999998 13.8068291015625 1.8978749999999998 Q 13.8660791015625 1.8978749999999998 13.9009541015625 1.8626249999999998 Q 13.9358291015625 1.8273749999999997 13.9358291015625 1.7538749999999996 L 13.9358291015625 1.4478749999999998 Q 13.9358291015625 1.4396249999999997 13.9407041015625 1.4347499999999997 Q 13.9455791015625 1.4298749999999996 13.9530791015625 1.4298749999999996 L 13.9920791015625 1.4298749999999996 Q 13.9995791015625 1.4298749999999996 14.0044541015625 1.4347499999999997 Q 14.0093291015625 1.4396249999999997 14.0093291015625 1.4478749999999998 L 14.0093291015625 1.7523749999999998 Q 14.0093291015625 1.8251249999999997 13.9849541015625 1.8712499999999996 Q 13.9605791015625 1.9173749999999996 13.9155791015625 1.9398749999999998 Q 13.8705791015625 1.9623749999999998 13.8068291015625 1.9623749999999998 M 14.121806030273438 1.9548749999999997 Q 14.114306030273438 1.9548749999999997 14.109431030273438 1.9499999999999997 Q 14.104556030273438 1.9451249999999998 14.104556030273438 1.9376249999999997 L 14.104556030273438 1.8836249999999997 Q 14.104556030273438 1.8761249999999996 14.109431030273438 1.8712499999999996 Q 14.114306030273438 1.8663749999999997 14.121806030273438 1.8663749999999997 L 14.175806030273437 1.8663749999999997 Q 14.183306030273437 1.8663749999999997 14.188556030273437 1.8712499999999996 Q 14.193806030273437 1.8761249999999996 14.193806030273437 1.8836249999999997 L 14.193806030273437 1.9376249999999997 Q 14.193806030273437 1.9451249999999998 14.188556030273437 1.9499999999999997 Q 14.183306030273437 1.9548749999999997 14.175806030273437 1.9548749999999997 L 14.121806030273438 1.9548749999999997" fill="#e9e9e5" fill-rule="nonzero"></path></g></g><defs><clipPath id="SvgjsClipPath161461"><path d=" M 14.748316650390626 -2.0393469829529893 h 6.032585178368736 v 6.033568965905978 h -6.032585178368736 Z"></path></clipPath><clipPath id="SvgjsClipPath161459a5455be6-5ced-4268-b333-830d76069122"><path d=" M 14.748316650390626 -2.0393469829529893 L 20.78090182875936 -2.0393469829529893 L 20.78090182875936 3.994221982952989 L 14.748316650390626 3.994221982952989 Z"></path></clipPath></defs></svg>